<svg width="32" height="32" viewBox="0 0 32 32" fill="none" xmlns="http://www.w3.org/2000/svg">
<path fill-rule="evenodd" clip-rule="evenodd" d="M13.6801 3.30394C12.3177 3.30394 10.9686 3.5723 9.70993 4.09371C8.45122 4.61511 7.30753 5.37934 6.34415 6.34277C5.38077 7.30621 4.61658 8.44996 4.0952 9.70874C3.57383 10.9675 3.30548 12.3167 3.30548 13.6792C3.30548 15.0417 3.57383 16.3908 4.0952 17.6496C4.61658 18.9084 5.38077 20.0522 6.34415 21.0156C7.30753 21.979 8.45122 22.7432 9.70993 23.2647C10.9686 23.7861 12.3177 24.0544 13.6801 24.0544C16.4317 24.0544 19.0705 22.9613 21.0161 21.0156C22.9618 19.0698 24.0548 16.4309 24.0548 13.6792C24.0548 10.9275 22.9618 8.28851 21.0161 6.34277C19.0705 4.39704 16.4317 3.30394 13.6801 3.30394ZM1 13.6792C1.00027 11.6427 1.49098 9.63625 2.43061 7.82954C3.37025 6.02283 4.73117 4.46901 6.39826 3.29951C8.06535 2.13002 9.98957 1.37925 12.0082 1.11073C14.0267 0.842198 16.0803 1.06381 17.9951 1.75681C19.9099 2.4498 21.6297 3.59381 23.009 5.09204C24.3882 6.59028 25.3863 8.39868 25.9189 10.3643C26.4515 12.3299 26.5029 14.3948 26.0687 16.3845C25.6346 18.3741 24.7276 20.2299 23.4246 21.7949L30.6331 29.0038C30.7464 29.1093 30.8372 29.2366 30.9002 29.378C30.9632 29.5194 30.9971 29.6721 30.9998 29.8269C31.0026 29.9816 30.9741 30.1354 30.9161 30.2789C30.8581 30.4225 30.7718 30.5529 30.6624 30.6624C30.5529 30.7718 30.4225 30.8581 30.279 30.9161C30.1354 30.9741 29.9817 31.0026 29.8269 30.9998C29.6721 30.9971 29.5195 30.9632 29.3781 30.9002C29.2367 30.8372 29.1094 30.7464 29.0039 30.6331L21.7954 23.4242C19.9437 24.9667 17.6908 25.9494 15.3006 26.2574C12.9105 26.5654 10.482 26.1859 8.29978 25.1633C6.11755 24.1407 4.27191 22.5173 2.97907 20.4834C1.68623 18.4495 0.999735 16.0892 1 13.6792Z" fill="black"/>
</svg>
