<svg width="32" height="32" viewBox="0 0 32 32" fill="none" xmlns="http://www.w3.org/2000/svg">
<path d="M20.9999 8C20.9999 9.32608 20.4732 10.5979 19.5355 11.5355C18.5978 12.4732 17.326 13 15.9999 13C14.6739 13 13.4021 12.4732 12.4644 11.5355C11.5267 10.5979 10.9999 9.32608 10.9999 8C10.9999 6.67392 11.5267 5.40215 12.4644 4.46447C13.4021 3.52678 14.6739 3 15.9999 3C17.326 3 18.5978 3.52678 19.5355 4.46447C20.4732 5.40215 20.9999 6.67392 20.9999 8ZM6.00128 26.824C6.04413 24.2005 7.1164 21.6989 8.98685 19.8587C10.8573 18.0186 13.3761 16.9873 15.9999 16.9873C18.6238 16.9873 21.1426 18.0186 23.013 19.8587C24.8835 21.6989 25.9558 24.2005 25.9986 26.824C22.8618 28.2624 19.4508 29.0047 15.9999 29C12.4319 29 9.04528 28.2213 6.00128 26.824Z" stroke="black" stroke-width="2" stroke-linecap="round" stroke-linejoin="round"/>
</svg>
