<svg id="Capa_1" data-name="Capa 1" xmlns="http://www.w3.org/2000/svg" width="24" height="24" viewBox="0 0 24 24">
  <path d="M1,16.61v-2H5v2Zm5.35-5.25L3.52,8.54l1.4-1.43L7.75,10ZM7,19.61v-3H17v3Zm4-11v-5h2v5Zm6.65,2.75L16.25,10l2.83-2.82,1.42,1.4ZM19,16.61v-2h4v2Z"/>
  <g>
    <path d="M10.13,15.42a2.42,2.42,0,0,1-.94-.18,2,2,0,0,1-.72-.5l.62-.57a1.47,1.47,0,0,0,.46.34,1.28,1.28,0,0,0,.56.1,1.2,1.2,0,0,0,.4-.06.59.59,0,0,0,.27-.18.45.45,0,0,0,.09-.28.35.35,0,0,0-.07-.23.58.58,0,0,0-.19-.15.65.65,0,0,0-.29-.05H9.78v-.77h.44a.6.6,0,0,0,.4-.12.42.42,0,0,0,.15-.34.44.44,0,0,0-.09-.27.58.58,0,0,0-.23-.18.74.74,0,0,0-.34-.07,1.14,1.14,0,0,0-.52.11,1.58,1.58,0,0,0-.46.37l-.63-.57a2.08,2.08,0,0,1,.73-.54,2.22,2.22,0,0,1,.91-.19,2,2,0,0,1,.81.15,1.33,1.33,0,0,1,.55.43,1.05,1.05,0,0,1,.2.63.88.88,0,0,1-.23.6,1.17,1.17,0,0,1-.57.36,1.28,1.28,0,0,1,.66.32.81.81,0,0,1,.24.59,1,1,0,0,1-.21.64,1.43,1.43,0,0,1-.59.45A2.21,2.21,0,0,1,10.13,15.42Z"/>
    <path d="M13.74,15.42a2.27,2.27,0,0,1-1.53-.56l.55-.65a1.79,1.79,0,0,0,.51.32,1.5,1.5,0,0,0,.52.09.86.86,0,0,0,.38-.07.56.56,0,0,0,.26-.22.54.54,0,0,0,.09-.31.52.52,0,0,0-.22-.44.83.83,0,0,0-.55-.18,1.33,1.33,0,0,0-.34,0,2.14,2.14,0,0,0-.35.16l-.66-.2.1-2.26h2.75v.79H13.32l-.05.91a1.48,1.48,0,0,1,.41-.13l.37,0a1.6,1.6,0,0,1,.75.16,1.15,1.15,0,0,1,.5.45,1.31,1.31,0,0,1,.17.67,1.38,1.38,0,0,1-.21.76,1.46,1.46,0,0,1-.61.51A2.14,2.14,0,0,1,13.74,15.42Z"/>
  </g>
</svg>
