<svg id="Capa_1" data-name="Capa 1" xmlns="http://www.w3.org/2000/svg" width="24" height="24" viewBox="0 0 24 24">
  <path d="M6.35,20.21a2.49,2.49,0,0,1-2.5-2.5v-10a2.49,2.49,0,0,1,2.5-2.5H13a2.45,2.45,0,0,1,1.77.73,2.41,2.41,0,0,1,.73,1.77V13h.83a1.64,1.64,0,0,1,1.18.49A1.6,1.6,0,0,1,18,14.63V17.3a.42.42,0,0,0,.12.29.42.42,0,0,0,.3.12.41.41,0,0,0,.41-.41V11.88a1.56,1.56,0,0,1-1.17-.49,1.6,1.6,0,0,1-.49-1.18V7.71H18V6.05h1.25V7.71h.83V6.05h1.25V7.71h.84v2.5a1.64,1.64,0,0,1-.49,1.18,1.6,1.6,0,0,1-1.18.49v5.33a2,2,0,0,1-.61,1.48,2.09,2.09,0,0,1-2.95,0,2,2,0,0,1-.61-1.48V14.55h-.83v2.33a3.35,3.35,0,0,1-3.33,3.33Zm0-1.66h5.84a1.62,1.62,0,0,0,1.17-.49,1.67,1.67,0,0,0,0-2.36,1.62,1.62,0,0,0-1.17-.49H8.44a.39.39,0,0,0-.3.13.41.41,0,0,0,0,.58.43.43,0,0,0,.3.13h3.75a.81.81,0,0,1,.59.24.85.85,0,0,1,0,1.18.81.81,0,0,1-.59.24H8.44a2.08,2.08,0,1,1,0-4.16h3.75a3.13,3.13,0,0,1,.86.12,2.79,2.79,0,0,1,.8.38V7.71A.82.82,0,0,0,13,6.88H6.35a.82.82,0,0,0-.83.83v10a.82.82,0,0,0,.83.84Zm0,0h0Z"/>
  <path d="M9.63,12.07a2.41,2.41,0,0,1-.93-.18,2,2,0,0,1-.72-.5l.62-.58a1.37,1.37,0,0,0,.46.35,1.44,1.44,0,0,0,.56.1,1,1,0,0,0,.4-.07.59.59,0,0,0,.27-.18.44.44,0,0,0,.09-.27.35.35,0,0,0-.07-.23.4.4,0,0,0-.19-.15.65.65,0,0,0-.29-.06H9.29V9.54h.44a.6.6,0,0,0,.4-.12.43.43,0,0,0,.15-.35.44.44,0,0,0-.09-.27A.84.84,0,0,0,10,8.62a.9.9,0,0,0-.34-.06,1.15,1.15,0,0,0-.52.1A1.64,1.64,0,0,0,8.64,9L8,8.47a2.08,2.08,0,0,1,.73-.54,2.23,2.23,0,0,1,.91-.2,2,2,0,0,1,.81.16,1.25,1.25,0,0,1,.55.42,1.1,1.1,0,0,1,.2.64,1,1,0,0,1-.22.6,1.2,1.2,0,0,1-.58.36,1.21,1.21,0,0,1,.66.32.82.82,0,0,1,.25.59,1.05,1.05,0,0,1-.22.64,1.36,1.36,0,0,1-.6.44A2.14,2.14,0,0,1,9.63,12.07Z"/>
</svg>
