<svg id="Capa_1" data-name="Capa 1" xmlns="http://www.w3.org/2000/svg" width="24" height="24" viewBox="0 0 24 24">
  <g>
    <path d="M10.8,10.45h-.71a.37.37,0,0,1-.39-.36.38.38,0,0,1,.35-.43h3a.4.4,0,0,1,.4.54.39.39,0,0,1-.36.25h-.9a.22.22,0,0,0-.14.06l-2,2a.47.47,0,0,1-.68,0,.45.45,0,0,1,0-.65l1.28-1.28Z"/>
    <path d="M14.31,11.82v-.67l-.1.1c-.42.41-.84.83-1.25,1.25a.44.44,0,0,1-.45.11.41.41,0,0,1-.29-.34.38.38,0,0,1,.1-.35l.1-.1,2-2a.52.52,0,0,1,.33-.18.42.42,0,0,1,.46.42c0,.71,0,1.42,0,2.12a.43.43,0,0,1-.42.43h-.59a.39.39,0,0,1-.38-.4.38.38,0,0,1,.36-.4Z"/>
    <path d="M7.21,11.15,7.32,11,8.55,9.81a.44.44,0,0,1,.69,0,.43.43,0,0,1,0,.55L7.08,12.51a.41.41,0,0,1-.47.08.39.39,0,0,1-.26-.39V10.09a.43.43,0,0,1,.86,0c0,.3,0,.6,0,.91Z"/>
    <path d="M16.56,10.46v-.28c0-.4.09-.54.33-.53s.32.14.32.54v.27c.17,0,.32,0,.48,0a.29.29,0,0,1,.29.4.25.25,0,0,1-.25.19h-.52v.49a.3.3,0,0,1-.2.3.33.33,0,0,1-.38-.09.47.47,0,0,1-.06-.2,2.54,2.54,0,0,1,0-.39c0-.08,0-.11-.1-.1h-.41a.3.3,0,0,1,0-.59C16.24,10.45,16.4,10.46,16.56,10.46Z"/>
  </g>
  <path d="M5,23a1.93,1.93,0,0,1-1.41-.59A1.93,1.93,0,0,1,3,21V3a1.93,1.93,0,0,1,.59-1.41A1.93,1.93,0,0,1,5,1H19a1.93,1.93,0,0,1,1.41.59A1.93,1.93,0,0,1,21,3V21a2,2,0,0,1-2,2Zm5-3h4V19H10ZM5,16H19V6H5Z"/>
</svg>
