<svg id="Capa_1" data-name="Capa 1" xmlns="http://www.w3.org/2000/svg" width="24" height="24" viewBox="0 0 24 24">
  <path d="M9,20.4H5a1.92,1.92,0,0,1-1.41-.58A2,2,0,0,1,3,18.4v-7a8.77,8.77,0,0,1,.71-3.51A9.26,9.26,0,0,1,5.64,5,9.06,9.06,0,0,1,8.49,3.12,8.61,8.61,0,0,1,12,2.4a8.61,8.61,0,0,1,3.51.72A9.06,9.06,0,0,1,18.36,5a9.26,9.26,0,0,1,1.93,2.85A8.77,8.77,0,0,1,21,11.4v7a2,2,0,0,1-.59,1.42A1.92,1.92,0,0,1,19,20.4H15v-8h4v-1a6.75,6.75,0,0,0-2-5,6.75,6.75,0,0,0-5-2,6.75,6.75,0,0,0-5,2,6.75,6.75,0,0,0-2,5v1H9Zm-2-6H5v4H7Zm10,0v4h2v-4Zm-10,0H7Zm10,0h0Z"/>
</svg>
