<svg id="Capa_1" data-name="Capa 1" xmlns="http://www.w3.org/2000/svg" width="24" height="24" viewBox="0 0 24 24">
  <g>
    <path d="M8.16,14.79l-.46.47L9,16.56A10.17,10.17,0,0,1,5.37,15.3c-.85-.56-1.27-1-1.27-1.44a.94.94,0,0,1,.22-.54,9.68,9.68,0,0,1-1.64-1.18,2.9,2.9,0,0,0-.58,1.72,3.72,3.72,0,0,0,2.07,3.05,13,13,0,0,0,5.28,1.75L7.7,20.46l1.4,1.4,4-4-2.73-2.73A15.68,15.68,0,0,1,8.16,14.79Z"/>
    <path d="M19.73,13.15a1.09,1.09,0,0,1,.37.71c0,.38-.35.82-1,1.31a9.32,9.32,0,0,1-3,1.24v2.05a11.37,11.37,0,0,0,4.33-1.83,3.45,3.45,0,0,0,1.67-2.77,3,3,0,0,0-.76-2A9.76,9.76,0,0,1,19.73,13.15Z"/>
  </g>
  <g>
    <path d="M3.94,12.46V6l-1.65.68V5l2.34-1H5.79v8.4Z"/>
    <path d="M10.36,12.59a4.38,4.38,0,0,1-1.71-.32,2.71,2.71,0,0,1-1.15-.88,2.19,2.19,0,0,1-.41-1.31,1.84,1.84,0,0,1,.19-.83,2.23,2.23,0,0,1,.56-.67,2.62,2.62,0,0,1,.83-.43,2.27,2.27,0,0,1-1-.72,1.7,1.7,0,0,1-.37-1.07,2.07,2.07,0,0,1,.4-1.25,2.88,2.88,0,0,1,1.09-.87,3.62,3.62,0,0,1,1.54-.31,3.71,3.71,0,0,1,1.56.31A2.77,2.77,0,0,1,13,5.11a2.07,2.07,0,0,1,.4,1.25A1.7,1.7,0,0,1,13,7.43a2.33,2.33,0,0,1-1,.72,2.44,2.44,0,0,1,1.14.74,1.81,1.81,0,0,1,.44,1.19,2.19,2.19,0,0,1-.41,1.31,2.68,2.68,0,0,1-1.16.88A4.31,4.31,0,0,1,10.36,12.59Zm0-1.55a1.72,1.72,0,0,0,.74-.14,1.18,1.18,0,0,0,.49-.39,1,1,0,0,0,0-1.13A1.25,1.25,0,0,0,11.1,9a1.72,1.72,0,0,0-.74-.14A1.65,1.65,0,0,0,9.64,9a1.21,1.21,0,0,0-.5.38,1,1,0,0,0,0,1.13,1.15,1.15,0,0,0,.5.39A1.65,1.65,0,0,0,10.36,11Zm0-3.51A1.42,1.42,0,0,0,11,7.39,1,1,0,0,0,11.42,7a1,1,0,0,0,.15-.54A1,1,0,0,0,11.42,6,1,1,0,0,0,11,5.59a1.57,1.57,0,0,0-.63-.13,1.52,1.52,0,0,0-.62.13A1,1,0,0,0,9.31,6a.9.9,0,0,0-.16.53A.93.93,0,0,0,9.31,7a1,1,0,0,0,.43.36A1.38,1.38,0,0,0,10.36,7.53Z"/>
    <path d="M18.32,12.57A3.37,3.37,0,0,1,16.41,12a3.6,3.6,0,0,1-1.27-1.52,5.15,5.15,0,0,1-.46-2.26A5.2,5.2,0,0,1,15.14,6a3.57,3.57,0,0,1,1.27-1.51,3.65,3.65,0,0,1,3.82,0A3.64,3.64,0,0,1,21.5,6,5.35,5.35,0,0,1,22,8.25a5.3,5.3,0,0,1-.45,2.26A3.67,3.67,0,0,1,20.23,12,3.39,3.39,0,0,1,18.32,12.57Zm0-1.64a1.45,1.45,0,0,0,.95-.33,2.13,2.13,0,0,0,.63-.93,4.37,4.37,0,0,0,.22-1.42,4.3,4.3,0,0,0-.22-1.43,2.13,2.13,0,0,0-.63-.93,1.45,1.45,0,0,0-.95-.33,1.47,1.47,0,0,0-1,.33,2.2,2.2,0,0,0-.62.93,4.06,4.06,0,0,0-.22,1.43,4.11,4.11,0,0,0,.22,1.42,2.2,2.2,0,0,0,.62.93A1.47,1.47,0,0,0,18.32,10.93Z"/>
  </g>
</svg>
