<svg id="Capa_1" data-name="Capa 1" xmlns="http://www.w3.org/2000/svg" width="24" height="24" viewBox="0 0 24 24">
  <path d="M20,10V7H17V5h3a2,2,0,0,1,2,2v3ZM2,10V7a1.93,1.93,0,0,1,.59-1.41A1.93,1.93,0,0,1,4,5H7V7H4v3Zm15,9V17h3V14h2v3a2,2,0,0,1-2,2ZM4,19a1.93,1.93,0,0,1-1.41-.59A1.93,1.93,0,0,1,2,17V14H4v3H7v2Z"/>
  <g>
    <path d="M8.29,14.65V10.33l-1.11.45V9.69l1.56-.64h.78v5.6Z"/>
    <path d="M11,14.73a.67.67,0,0,1-.51-.22.76.76,0,0,1,0-1.07.7.7,0,0,1,1,0,.76.76,0,0,1,0,1.07A.67.67,0,0,1,11,14.73Z"/>
    <path d="M14.46,14.73a3.27,3.27,0,0,1-1.25-.24,2.5,2.5,0,0,1-1-.66l.83-.77a2,2,0,0,0,.6.47,2.05,2.05,0,0,0,.76.12,1.44,1.44,0,0,0,.53-.08.84.84,0,0,0,.35-.24.52.52,0,0,0,.13-.36.49.49,0,0,0-.1-.32.63.63,0,0,0-.25-.2,1.13,1.13,0,0,0-.39-.07H14v-1h.59a.81.81,0,0,0,.54-.17.56.56,0,0,0,.19-.46.55.55,0,0,0-.12-.35.7.7,0,0,0-.31-.25,1.06,1.06,0,0,0-.45-.09,1.6,1.6,0,0,0-.69.14,2.31,2.31,0,0,0-.61.5l-.84-.76a2.72,2.72,0,0,1,1-.71A3,3,0,0,1,14.49,9a2.77,2.77,0,0,1,1.08.2,1.83,1.83,0,0,1,.73.57,1.44,1.44,0,0,1,.26.84,1.15,1.15,0,0,1-.3.8,1.51,1.51,0,0,1-.76.48,1.74,1.74,0,0,1,.88.43,1.1,1.1,0,0,1,.32.79,1.39,1.39,0,0,1-.28.86,2,2,0,0,1-.8.59A3,3,0,0,1,14.46,14.73Z"/>
  </g>
</svg>
