<svg id="Capa_1" data-name="Capa 1" xmlns="http://www.w3.org/2000/svg" width="24" height="24" viewBox="0 0 24 24">
  <path d="M1,16.61v-2H5v2Zm5.35-5.25L3.52,8.54l1.4-1.43L7.75,10ZM7,19.61v-3H17v3Zm4-11v-5h2v5Zm6.65,2.75L16.25,10l2.83-2.82,1.42,1.4ZM19,16.61v-2h4v2Z"/>
  <g>
    <path d="M9.87,15.42a2.46,2.46,0,0,1-.94-.18,1.94,1.94,0,0,1-.71-.5l.62-.57a1.56,1.56,0,0,0,.45.34,1.35,1.35,0,0,0,.57.1,1.2,1.2,0,0,0,.4-.06.55.55,0,0,0,.26-.18.4.4,0,0,0,.1-.28.42.42,0,0,0-.07-.23.58.58,0,0,0-.19-.15.68.68,0,0,0-.29-.05H9.53v-.77H10a.6.6,0,0,0,.4-.12.42.42,0,0,0,.15-.34.44.44,0,0,0-.09-.27.55.55,0,0,0-.24-.18.7.7,0,0,0-.33-.07,1.14,1.14,0,0,0-.52.11,1.46,1.46,0,0,0-.46.37l-.63-.57A2.08,2.08,0,0,1,9,11.28a2.18,2.18,0,0,1,.91-.19,2,2,0,0,1,.81.15,1.33,1.33,0,0,1,.55.43,1.05,1.05,0,0,1,.2.63.88.88,0,0,1-.23.6,1.21,1.21,0,0,1-.57.36,1.28,1.28,0,0,1,.66.32.81.81,0,0,1,.24.59,1,1,0,0,1-.21.64,1.53,1.53,0,0,1-.6.45A2.14,2.14,0,0,1,9.87,15.42Z"/>
    <path d="M13.9,15.41a1.66,1.66,0,0,1-1-.27,1.71,1.71,0,0,1-.64-.76,2.65,2.65,0,0,1-.23-1.13,2.73,2.73,0,0,1,.23-1.14,1.74,1.74,0,0,1,.64-.75,1.66,1.66,0,0,1,1-.27,1.68,1.68,0,0,1,.95.27,1.81,1.81,0,0,1,.64.75,2.73,2.73,0,0,1,.23,1.14,2.65,2.65,0,0,1-.23,1.13,1.78,1.78,0,0,1-.64.76A1.68,1.68,0,0,1,13.9,15.41Zm0-.82a.75.75,0,0,0,.48-.16,1.17,1.17,0,0,0,.31-.47,2.38,2.38,0,0,0,0-1.43,1.13,1.13,0,0,0-.31-.46.76.76,0,0,0-.48-.17.74.74,0,0,0-.48.17,1,1,0,0,0-.31.46,2.38,2.38,0,0,0,0,1.43,1.08,1.08,0,0,0,.31.47A.73.73,0,0,0,13.9,14.59Z"/>
  </g>
</svg>
