<svg id="Capa_1" data-name="Capa 1" xmlns="http://www.w3.org/2000/svg" width="24" height="24" viewBox="0 0 24 24">
  <path d="M11.14,22.5a3,3,0,0,1-1.32-.3,2.9,2.9,0,0,1-1-.85L3.34,14.43l.47-.5A2.07,2.07,0,0,1,5,13.3a1.86,1.86,0,0,1,1.3.28L8.16,14.7V6.5a1,1,0,0,1,1-1,1,1,0,0,1,.73.29.94.94,0,0,1,.3.71v5h7.47a3,3,0,0,1,3,3v4a4,4,0,0,1-4,4ZM4.84,9a4.48,4.48,0,0,1-.5-1.19A4.76,4.76,0,0,1,4.16,6.5,4.86,4.86,0,0,1,5.62,3,4.86,4.86,0,0,1,9.16,1.5,4.84,4.84,0,0,1,12.7,3,4.82,4.82,0,0,1,14.16,6.5,5.17,5.17,0,0,1,14,7.81,5.25,5.25,0,0,1,13.49,9L11.76,8a2.57,2.57,0,0,0,.3-.71,2.85,2.85,0,0,0,.1-.79,3,3,0,0,0-3-3,3,3,0,0,0-3,3,3.28,3.28,0,0,0,.1.79,3.36,3.36,0,0,0,.3.71Z"/>
</svg>
