<svg id="Capa_1" data-name="Capa 1" xmlns="http://www.w3.org/2000/svg" width="24" height="24" viewBox="0 0 24 24">
  <path d="M1,18.33A10.86,10.86,0,0,1,2.64,13.4,10.42,10.42,0,0,1,6.4,9.82L4.55,6.62a.53.53,0,0,1-.08-.47.62.62,0,0,1,.33-.38.54.54,0,0,1,.45,0,.71.71,0,0,1,.4.3L7.5,9.22a11.7,11.7,0,0,1,9,0L18.35,6a.71.71,0,0,1,.4-.3.54.54,0,0,1,.45,0,.62.62,0,0,1,.33.38.53.53,0,0,1-.08.47L17.6,9.82a10.42,10.42,0,0,1,3.76,3.58A10.86,10.86,0,0,1,23,18.33Zm6-2.75a1.22,1.22,0,0,0,.89-.37,1.19,1.19,0,0,0,.36-.88,1.26,1.26,0,0,0-2.14-.89,1.21,1.21,0,0,0-.36.89,1.19,1.19,0,0,0,.36.88A1.22,1.22,0,0,0,7,15.58Zm10,0a1.22,1.22,0,0,0,.89-.37,1.19,1.19,0,0,0,.36-.88,1.25,1.25,0,1,0-2.5,0,1.19,1.19,0,0,0,.36.88A1.22,1.22,0,0,0,17,15.58Z"/>
</svg>
