<svg id="Capa_1" data-name="Capa 1" xmlns="http://www.w3.org/2000/svg" width="24" height="24" viewBox="0 0 24 24">
  <path d="M5,22.12a4,4,0,0,0,2.54-.78,4.81,4.81,0,0,0,1.51-2.27,6.15,6.15,0,0,1,.81-1.75,11.68,11.68,0,0,1,1.79-1.6,10.18,10.18,0,0,0,2.45-2.83A7.49,7.49,0,0,0,15,9.12a6.87,6.87,0,0,0-7-7,6.87,6.87,0,0,0-7,7H3a4.9,4.9,0,0,1,5-5,4.9,4.9,0,0,1,5,5,5.84,5.84,0,0,1-.67,2.9,7.34,7.34,0,0,1-1.93,2.15,10.73,10.73,0,0,0-2,1.85A6.22,6.22,0,0,0,7.3,18a4.2,4.2,0,0,1-.84,1.62A1.89,1.89,0,0,1,5,20.12a1.93,1.93,0,0,1-1.41-.59A1.93,1.93,0,0,1,3,18.12H1a3.84,3.84,0,0,0,1.17,2.82A3.89,3.89,0,0,0,5,22.12Zm3-10.5a2.51,2.51,0,0,0,2.5-2.5A2.48,2.48,0,0,0,8,6.62a2.5,2.5,0,0,0-1.78,4.26A2.42,2.42,0,0,0,8,11.62Zm9.5,3L16,13.17a9.63,9.63,0,0,0,.72-1.94A8.65,8.65,0,0,0,17,9.12,8.39,8.39,0,0,0,16.75,7,9.54,9.54,0,0,0,16,5.09L17.5,3.62a10.8,10.8,0,0,1,1.11,2.61A10.61,10.61,0,0,1,19,9.12,10.76,10.76,0,0,1,18.61,12,11.14,11.14,0,0,1,17.5,14.64Zm2.93,2.9L19,16.09a12.86,12.86,0,0,0,1.51-3.25A12.39,12.39,0,0,0,21,9.17a12.36,12.36,0,0,0-.55-3.72,13.31,13.31,0,0,0-1.52-3.26l1.5-1.5a15.11,15.11,0,0,1,1.9,3.94A14.79,14.79,0,0,1,23,9.12a14.77,14.77,0,0,1-.67,4.48A15.11,15.11,0,0,1,20.43,17.54Z"/>
</svg>
