<svg id="Capa_1" data-name="Capa 1" xmlns="http://www.w3.org/2000/svg" width="24" height="24" viewBox="0 0 24 24">
  <path d="M4.9,16.65a10.55,10.55,0,0,1-2.16-3.32,10,10,0,0,1,0-7.56A10.55,10.55,0,0,1,4.9,2.45l1.2,1.2A7.85,7.85,0,0,0,4.3,6.41a8.52,8.52,0,0,0,0,6.28,7.85,7.85,0,0,0,1.8,2.76Zm2.4-2.4a6.75,6.75,0,0,1-1.49-2.2,6.38,6.38,0,0,1,0-5A6.75,6.75,0,0,1,7.3,4.85l1.2,1.2a4.29,4.29,0,0,0-1.13,1.6A5,5,0,0,0,7,9.55a4.77,4.77,0,0,0,.37,1.82A5,5,0,0,0,8.5,13.05ZM7,21.55l3.37-10.13a2.68,2.68,0,0,1-.63-.82,2.31,2.31,0,0,1-.24-1,2.5,2.5,0,1,1,5,0,2.31,2.31,0,0,1-.24,1,2.68,2.68,0,0,1-.63.82L17,21.55H15l-.65-2H9.67l-.67,2Zm3.32-4h3.36l-1.68-5Zm6.38-3.3-1.2-1.2a4.29,4.29,0,0,0,1.13-1.6A5,5,0,0,0,17,9.55a4.86,4.86,0,0,0-.37-1.83A5.09,5.09,0,0,0,15.5,6.05l1.2-1.2a6.34,6.34,0,0,1,1.45,2.2,8.14,8.14,0,0,1,.55,2.5,6.46,6.46,0,0,1-.51,2.5A6.75,6.75,0,0,1,16.7,14.25Zm2.4,2.4-1.2-1.2a7.85,7.85,0,0,0,1.8-2.76,8.52,8.52,0,0,0,0-6.28,7.85,7.85,0,0,0-1.8-2.76l1.2-1.2a10.55,10.55,0,0,1,2.16,3.32A10.06,10.06,0,0,1,22,9.55a10.42,10.42,0,0,1-.7,3.78A9.58,9.58,0,0,1,19.1,16.65Z"/>
</svg>
