<svg id="Capa_1" data-name="Capa 1" xmlns="http://www.w3.org/2000/svg" width="24" height="24" viewBox="0 0 24 24">
  <path d="M15,16h4V12H17.5v2.5H15ZM5,10H6.5V7.5H9V6H5ZM8,21V19H4a1.93,1.93,0,0,1-1.41-.59A1.93,1.93,0,0,1,2,17V5a1.93,1.93,0,0,1,.59-1.41A1.93,1.93,0,0,1,4,3H20a1.93,1.93,0,0,1,1.41.59A1.93,1.93,0,0,1,22,5V17a2,2,0,0,1-2,2H16v2ZM4,17H20V5H4Zm0,0v0Z"/>
  <g>
    <path d="M8.17,13v-2.7l-.69.28V9.91l1-.4h.48V13Z"/>
    <path d="M9.5,13v-.55L11,11a.67.67,0,0,0,.21-.31.5.5,0,0,0,0-.16.35.35,0,0,0-.15-.29.62.62,0,0,0-.37-.11,1,1,0,0,0-.44.1,1.48,1.48,0,0,0-.44.33L9.39,10A2.08,2.08,0,0,1,10,9.6a1.74,1.74,0,0,1,.71-.15,1.48,1.48,0,0,1,.65.13,1,1,0,0,1,.43.35,1,1,0,0,1,.16.54,1.07,1.07,0,0,1-.2.61,1.74,1.74,0,0,1-.26.3l-1,1H12V13Z"/>
    <path d="M14,13.05a1.41,1.41,0,0,1-.8-.22,1.5,1.5,0,0,1-.53-.63,2.18,2.18,0,0,1-.19-.95,2.13,2.13,0,0,1,.19-.94,1.5,1.5,0,0,1,.53-.63,1.49,1.49,0,0,1,1.59,0,1.5,1.5,0,0,1,.53.63,2.13,2.13,0,0,1,.19.94,2.18,2.18,0,0,1-.19.95,1.5,1.5,0,0,1-.53.63A1.4,1.4,0,0,1,14,13.05Zm0-.68a.55.55,0,0,0,.39-.14.79.79,0,0,0,.26-.39,1.52,1.52,0,0,0,.1-.59,1.49,1.49,0,0,0-.1-.59.79.79,0,0,0-.26-.39.6.6,0,0,0-.39-.14.61.61,0,0,0-.4.14.86.86,0,0,0-.26.39,1.7,1.7,0,0,0-.09.59,1.74,1.74,0,0,0,.09.59.86.86,0,0,0,.26.39A.56.56,0,0,0,14,12.37Z"/>
    <path d="M15.8,10.78l.38-1.52H17l-.59,1.52Z"/>
    <path d="M17.18,10.78l.37-1.52h.8l-.59,1.52Z"/>
  </g>
</svg>
