<svg id="Capa_1" data-name="Capa 1" xmlns="http://www.w3.org/2000/svg" width="24.02" height="24.02" viewBox="0 0 24.02 24.02">
  <g>
    <path d="M8.07,15l-.46.46,1.3,1.3a9.8,9.8,0,0,1-3.63-1.26C4.43,15,4,14.47,4,14.07a.94.94,0,0,1,.22-.53,9.72,9.72,0,0,1-1.64-1.19A2.94,2.94,0,0,0,2,14.07a3.71,3.71,0,0,0,2.07,3.05,12.75,12.75,0,0,0,5.28,1.75l-1.75,1.8L9,22.07l4-4-2.73-2.72A17.28,17.28,0,0,1,8.07,15Z"/>
    <path d="M19.64,13.36a1.12,1.12,0,0,1,.37.71c0,.39-.35.82-1,1.32a9.11,9.11,0,0,1-3,1.23v2.05a11.48,11.48,0,0,0,4.34-1.82A3.48,3.48,0,0,0,22,14.07a3,3,0,0,0-.76-2A9.21,9.21,0,0,1,19.64,13.36Z"/>
  </g>
  <g>
    <path d="M3.85,12.67V6.19L2.2,6.88V5.25l2.34-1H5.7v8.4Z"/>
    <path d="M7.05,12.67V11.35L10.6,7.84a2.58,2.58,0,0,0,.32-.38,1.46,1.46,0,0,0,.18-.38,1.26,1.26,0,0,0,.06-.38A.84.84,0,0,0,10.81,6a1.42,1.42,0,0,0-.88-.27A2.52,2.52,0,0,0,8.87,6a4.48,4.48,0,0,0-1.07.8l-1-1.26a5.29,5.29,0,0,1,1.53-1A4.26,4.26,0,0,1,10,4.14a3.59,3.59,0,0,1,1.56.31,2.45,2.45,0,0,1,1,.85A2.19,2.19,0,0,1,13,6.58a2.74,2.74,0,0,1-.11.76,2.8,2.8,0,0,1-.36.71,4,4,0,0,1-.62.72L9.45,11.11h3.63v1.57Z"/>
    <path d="M17.74,12.78a3.37,3.37,0,0,1-1.91-.54,3.57,3.57,0,0,1-1.27-1.51,5.2,5.2,0,0,1-.46-2.27,5.23,5.23,0,0,1,.46-2.27,3.63,3.63,0,0,1,1.27-1.51,3.65,3.65,0,0,1,3.82,0,3.71,3.71,0,0,1,1.27,1.51,5.38,5.38,0,0,1,.45,2.27,5.35,5.35,0,0,1-.45,2.27,3.64,3.64,0,0,1-1.27,1.51A3.39,3.39,0,0,1,17.74,12.78Zm0-1.63a1.45,1.45,0,0,0,1-.33,2.11,2.11,0,0,0,.63-.94,4.28,4.28,0,0,0,.22-1.42A4.34,4.34,0,0,0,19.32,7a2.13,2.13,0,0,0-.63-.93,1.45,1.45,0,0,0-1-.33,1.47,1.47,0,0,0-1,.33,2.2,2.2,0,0,0-.62.93,4.09,4.09,0,0,0-.22,1.43,4,4,0,0,0,.22,1.42,2.18,2.18,0,0,0,.62.94A1.47,1.47,0,0,0,17.74,11.15Z"/>
  </g>
</svg>
