<svg id="Capa_1" data-name="Capa 1" xmlns="http://www.w3.org/2000/svg" width="24" height="24" viewBox="0 0 24 24">
  <path d="M7.68,14.43a.78.78,0,0,0,.58-.24.78.78,0,0,0,.23-.57V11.18a.81.81,0,1,0-1.62,0v2.44a.78.78,0,0,0,.23.57A.78.78,0,0,0,7.68,14.43Zm.81,4.87h3.25V17.67a1.54,1.54,0,0,0-.48-1.14,1.56,1.56,0,0,0-1.15-.48,1.64,1.64,0,0,0-1.62,1.62Zm4.06-4.87a.82.82,0,0,0,.81-.81V11.18a.78.78,0,0,0-.24-.58.78.78,0,0,0-.57-.23.8.8,0,0,0-.58.23.78.78,0,0,0-.23.58v2.44a.74.74,0,0,0,.23.57A.77.77,0,0,0,12.55,14.43Zm-2.44,8.11A7.83,7.83,0,0,1,7,21.9a8,8,0,0,1-4.31-4.31,8.15,8.15,0,0,1,0-6.33A8.14,8.14,0,0,1,4.37,8.69,8.26,8.26,0,0,1,7,7a8.15,8.15,0,0,1,6.33,0,8.21,8.21,0,0,1,4.31,4.31,8.15,8.15,0,0,1,0,6.33,8.26,8.26,0,0,1-1.74,2.58,8.14,8.14,0,0,1-2.57,1.73A7.84,7.84,0,0,1,10.11,22.54Z"/>
  <path d="M18.06,8.34a3,3,0,0,1-2-.75l.74-.86a2.67,2.67,0,0,0,.68.42,2,2,0,0,0,.69.12,1.13,1.13,0,0,0,.51-.1A.73.73,0,0,0,19,6.89a.68.68,0,0,0,.13-.42.74.74,0,0,0-.29-.59,1.21,1.21,0,0,0-.74-.23,1.41,1.41,0,0,0-.45.07,2.07,2.07,0,0,0-.47.2l-.88-.26.13-3h3.67V3.7H17.49l-.06,1.21A1.91,1.91,0,0,1,18,4.74a2.77,2.77,0,0,1,.49,0,2.26,2.26,0,0,1,1,.21,1.6,1.6,0,0,1,.66.6,1.71,1.71,0,0,1,.23.89,1.71,1.71,0,0,1-.29,1,1.84,1.84,0,0,1-.8.68A2.73,2.73,0,0,1,18.06,8.34Z"/>
</svg>
