<svg id="Capa_1" data-name="Capa 1" xmlns="http://www.w3.org/2000/svg" width="24" height="24" viewBox="0 0 24 24">
  <path d="M12,7.51A2.88,2.88,0,0,0,10.1,8,5,5,0,0,1,12,7.6,4.87,4.87,0,0,1,13.87,8,2.92,2.92,0,0,0,12,7.51Zm5.27.18a1.17,1.17,0,0,0-.56.32,1.8,1.8,0,0,1-1.41.5,2.73,2.73,0,0,1-.41,0,5.18,5.18,0,0,1,1.69,1.91,1.45,1.45,0,0,0,.71-.38,1.69,1.69,0,0,1,1.26-.49A6.7,6.7,0,0,0,17.27,7.69Zm-8.62.82A1.84,1.84,0,0,1,7.26,8a1.28,1.28,0,0,0-.54-.31A6.77,6.77,0,0,0,5.45,9.52,1.8,1.8,0,0,1,6.74,10a1.5,1.5,0,0,0,.69.37A5.15,5.15,0,0,1,9.14,8.47,2.49,2.49,0,0,1,8.65,8.51Zm10.1,1.41h-.1a1.41,1.41,0,0,0-1.07.37,1.68,1.68,0,0,1-.82.47,4.21,4.21,0,0,1,.2.63,4.29,4.29,0,0,1,1.69-.27,3.62,3.62,0,0,1,.47,0A8.08,8.08,0,0,0,18.75,9.92ZM6.85,12.75a4.34,4.34,0,0,1,.1-1,3.53,3.53,0,0,0-1.6-.28l-.55,0a6.09,6.09,0,0,0-.11,1.22,7.89,7.89,0,0,0,0,.84,2,2,0,0,1,.61-.08,1.88,1.88,0,0,1,1.39.5,1.14,1.14,0,0,0,.33.23A5.21,5.21,0,0,1,6.85,12.75Zm11.8,2.76a2.6,2.6,0,0,0-1.91.5,1.59,1.59,0,0,1-1.22.49,5.07,5.07,0,0,1-2.42,1.28,1.39,1.39,0,0,1,.31.23,2.79,2.79,0,0,0,1.94.5,4.74,4.74,0,0,0,1.32-.15,7.19,7.19,0,0,0,2.1-2.85Zm0-1.6a1.41,1.41,0,0,0-1.07.37,1.71,1.71,0,0,1-.83.47h0A4.62,4.62,0,0,1,16,16a1,1,0,0,0,.48-.28,2.87,2.87,0,0,1,2.21-.64h.26A6.35,6.35,0,0,0,19.2,14,1.84,1.84,0,0,0,18.65,13.91Zm-3.3,5a3.15,3.15,0,0,1-2.22-.61A1.52,1.52,0,0,0,12,17.91a1.51,1.51,0,0,0-1.12.37,3,3,0,0,1-2.23.63,5.47,5.47,0,0,1-.6,0,7.27,7.27,0,0,0,7.91,0A5.79,5.79,0,0,1,15.35,18.91ZM8.48,16.5A1.6,1.6,0,0,1,7.29,16a2.72,2.72,0,0,0-1.94-.5H5.23a7.31,7.31,0,0,0,2.09,2.84,4.38,4.38,0,0,0,1.33.16,2.68,2.68,0,0,0,1.94-.5,1.76,1.76,0,0,1,.3-.24A4.94,4.94,0,0,1,8.48,16.5ZM7.26,14.74a1.76,1.76,0,0,1-.81-.45,1.48,1.48,0,0,0-1.1-.38A1.88,1.88,0,0,0,4.8,14a6.35,6.35,0,0,0,.29,1.14h.26a3,3,0,0,1,2.23.63A1,1,0,0,0,8,16,4.74,4.74,0,0,1,7.26,14.74ZM19.2,11.53l-.55,0a3.85,3.85,0,0,0-1.59.26,5.25,5.25,0,0,1,.09,1,5.35,5.35,0,0,1-.22,1.51,1.1,1.1,0,0,0,.36-.25,1.77,1.77,0,0,1,1.36-.5,2,2,0,0,1,.61.08,7.89,7.89,0,0,0,0-.84A6.09,6.09,0,0,0,19.2,11.53ZM6.45,10.29a1.48,1.48,0,0,0-1.1-.38h-.1a8.08,8.08,0,0,0-.37,1.21,3.54,3.54,0,0,1,.47,0A3.92,3.92,0,0,1,7,11.4a3.65,3.65,0,0,1,.22-.66A1.76,1.76,0,0,1,6.45,10.29ZM12,5.44A7.25,7.25,0,0,0,7,7.39a1.77,1.77,0,0,1,.51.35,1.48,1.48,0,0,0,1.1.37,1.45,1.45,0,0,0,1.12-.37A3,3,0,0,1,12,7.11a3.09,3.09,0,0,1,2.21.62,1.45,1.45,0,0,0,1.09.38,1.45,1.45,0,0,0,1.12-.37A1.46,1.46,0,0,1,17,7.38,7.23,7.23,0,0,0,12,5.44Zm0,2.07A2.88,2.88,0,0,0,10.1,8,5,5,0,0,1,12,7.6,4.87,4.87,0,0,1,13.87,8,2.92,2.92,0,0,0,12,7.51Z"/>
  <path d="M20.59,8a2.83,2.83,0,0,0-1.94-.5,4.27,4.27,0,0,0-1.38.18,1.17,1.17,0,0,0-.56.32,1.8,1.8,0,0,1-1.41.5,2.73,2.73,0,0,1-.41,0h0a4.75,4.75,0,0,0-1-.52A2.92,2.92,0,0,0,12,7.51,2.88,2.88,0,0,0,10.1,8a4.86,4.86,0,0,0-1,.5,2.49,2.49,0,0,1-.49,0A1.84,1.84,0,0,1,7.26,8a1.28,1.28,0,0,0-.54-.31,4,4,0,0,0-1.37-.19A2.72,2.72,0,0,0,3.41,8,1.8,1.8,0,0,1,2,8.51v2A2.78,2.78,0,0,0,3.94,10a1.94,1.94,0,0,1,1.41-.5h.1A1.8,1.8,0,0,1,6.74,10a1.5,1.5,0,0,0,.69.37,5,5,0,0,0,1.27.13,2.56,2.56,0,0,0,1.91-.5A1.79,1.79,0,0,1,12,9.51a1.94,1.94,0,0,1,1.41.5,2.79,2.79,0,0,0,1.94.5,5.2,5.2,0,0,0,1.23-.12,1.45,1.45,0,0,0,.71-.38,1.69,1.69,0,0,1,1.26-.49h.1A1.88,1.88,0,0,1,20,10a2.75,2.75,0,0,0,2,.5v-2A1.9,1.9,0,0,1,20.59,8Zm0,4a2.29,2.29,0,0,0-1.39-.48l-.55,0a3.85,3.85,0,0,0-1.59.26,1.14,1.14,0,0,0-.35.24,1.8,1.8,0,0,1-1.41.5,1.82,1.82,0,0,1-1.37-.5,2.8,2.8,0,0,0-1.93-.5,2.72,2.72,0,0,0-1.94.5,1.8,1.8,0,0,1-1.41.5A1.84,1.84,0,0,1,7.26,12,1.23,1.23,0,0,0,7,11.79a3.53,3.53,0,0,0-1.6-.28l-.55,0A2.13,2.13,0,0,0,3.41,12a1.8,1.8,0,0,1-1.41.5v2A2.78,2.78,0,0,0,3.94,14a1.59,1.59,0,0,1,.8-.42,2,2,0,0,1,.61-.08,1.88,1.88,0,0,1,1.39.5,1.14,1.14,0,0,0,.33.23,3.84,3.84,0,0,0,1.63.27,2.56,2.56,0,0,0,1.91-.5,1.79,1.79,0,0,1,1.39-.5,1.94,1.94,0,0,1,1.41.5,2.79,2.79,0,0,0,1.94.5,3.85,3.85,0,0,0,1.58-.25,1.1,1.1,0,0,0,.36-.25,1.77,1.77,0,0,1,1.36-.5,2,2,0,0,1,.61.08A1.56,1.56,0,0,1,20,14a2.75,2.75,0,0,0,2,.5v-2A1.9,1.9,0,0,1,20.59,12Zm0,4a2.55,2.55,0,0,0-1.82-.5h-.12a2.6,2.6,0,0,0-1.91.5,1.59,1.59,0,0,1-1.22.49h-.17a1.9,1.9,0,0,1-1.41-.5,2.83,2.83,0,0,0-1.94-.5,2.72,2.72,0,0,0-1.94.5,1.8,1.8,0,0,1-1.41.5H8.48A1.6,1.6,0,0,1,7.29,16a2.72,2.72,0,0,0-1.94-.5H5.23a2.55,2.55,0,0,0-1.82.5,1.8,1.8,0,0,1-1.41.5v2A2.68,2.68,0,0,0,3.94,18a1.85,1.85,0,0,1,1.41-.5,1.77,1.77,0,0,1,1.39.5,1.21,1.21,0,0,0,.58.34,4.38,4.38,0,0,0,1.33.16,2.68,2.68,0,0,0,1.94-.5,1.76,1.76,0,0,1,.3-.24A2.17,2.17,0,0,1,12,17.51a2.09,2.09,0,0,1,1.1.27,1.39,1.39,0,0,1,.31.23,2.79,2.79,0,0,0,1.94.5,4.74,4.74,0,0,0,1.32-.15,1.32,1.32,0,0,0,.62-.35,1.77,1.77,0,0,1,1.36-.5,1.94,1.94,0,0,1,1.41.5,2.79,2.79,0,0,0,1.94.5v-2A1.81,1.81,0,0,1,20.59,16Z"/>
  <path d="M20.59,8a2.83,2.83,0,0,0-1.94-.5,4.27,4.27,0,0,0-1.38.18,1.17,1.17,0,0,0-.56.32,1.8,1.8,0,0,1-1.41.5,2.73,2.73,0,0,1-.41,0h0A1.69,1.69,0,0,1,13.93,8l-.06,0A2.92,2.92,0,0,0,12,7.51,2.88,2.88,0,0,0,10.1,8l0,0a1.48,1.48,0,0,1-.92.46,2.49,2.49,0,0,1-.49,0A1.84,1.84,0,0,1,7.26,8a1.28,1.28,0,0,0-.54-.31,4,4,0,0,0-1.37-.19A2.72,2.72,0,0,0,3.41,8,1.8,1.8,0,0,1,2,8.51v2A2.78,2.78,0,0,0,3.94,10a1.94,1.94,0,0,1,1.41-.5h.1A1.8,1.8,0,0,1,6.74,10a1.5,1.5,0,0,0,.69.37,5,5,0,0,0,1.27.13,2.56,2.56,0,0,0,1.91-.5A1.79,1.79,0,0,1,12,9.51a1.94,1.94,0,0,1,1.41.5,2.79,2.79,0,0,0,1.94.5,5.2,5.2,0,0,0,1.23-.12,1.45,1.45,0,0,0,.71-.38,1.69,1.69,0,0,1,1.26-.49h.1A1.88,1.88,0,0,1,20,10a2.75,2.75,0,0,0,2,.5v-2A1.9,1.9,0,0,1,20.59,8Zm0,4a2.29,2.29,0,0,0-1.39-.48l-.55,0a3.85,3.85,0,0,0-1.59.26,1.14,1.14,0,0,0-.35.24,1.8,1.8,0,0,1-1.41.5,1.82,1.82,0,0,1-1.37-.5,2.8,2.8,0,0,0-1.93-.5,2.72,2.72,0,0,0-1.94.5,1.8,1.8,0,0,1-1.41.5A1.84,1.84,0,0,1,7.26,12,1.23,1.23,0,0,0,7,11.79a3.53,3.53,0,0,0-1.6-.28l-.55,0A2.13,2.13,0,0,0,3.41,12a1.8,1.8,0,0,1-1.41.5v2A2.78,2.78,0,0,0,3.94,14a1.59,1.59,0,0,1,.8-.42,2,2,0,0,1,.61-.08,1.88,1.88,0,0,1,1.39.5,1.14,1.14,0,0,0,.33.23,3.84,3.84,0,0,0,1.63.27,2.56,2.56,0,0,0,1.91-.5,1.79,1.79,0,0,1,1.39-.5,1.94,1.94,0,0,1,1.41.5,2.79,2.79,0,0,0,1.94.5,3.85,3.85,0,0,0,1.58-.25,1.1,1.1,0,0,0,.36-.25,1.77,1.77,0,0,1,1.36-.5,2,2,0,0,1,.61.08A1.56,1.56,0,0,1,20,14a2.75,2.75,0,0,0,2,.5v-2A1.9,1.9,0,0,1,20.59,12Zm0,4a2.55,2.55,0,0,0-1.82-.5h-.12a2.6,2.6,0,0,0-1.91.5,1.59,1.59,0,0,1-1.22.49h-.17a1.9,1.9,0,0,1-1.41-.5,2.83,2.83,0,0,0-1.94-.5,2.72,2.72,0,0,0-1.94.5,1.8,1.8,0,0,1-1.41.5H8.48A1.6,1.6,0,0,1,7.29,16a2.72,2.72,0,0,0-1.94-.5H5.23a2.55,2.55,0,0,0-1.82.5,1.8,1.8,0,0,1-1.41.5v2A2.68,2.68,0,0,0,3.94,18a1.85,1.85,0,0,1,1.41-.5,1.77,1.77,0,0,1,1.39.5,1.21,1.21,0,0,0,.58.34,4.38,4.38,0,0,0,1.33.16,2.68,2.68,0,0,0,1.94-.5,1.76,1.76,0,0,1,.3-.24A2.17,2.17,0,0,1,12,17.51a2.09,2.09,0,0,1,1.1.27,1.39,1.39,0,0,1,.31.23,2.79,2.79,0,0,0,1.94.5,4.74,4.74,0,0,0,1.32-.15,1.32,1.32,0,0,0,.62-.35,1.77,1.77,0,0,1,1.36-.5,1.94,1.94,0,0,1,1.41.5,2.79,2.79,0,0,0,1.94.5v-2A1.81,1.81,0,0,1,20.59,16Z"/>
</svg>
