<svg id="Capa_1" data-name="Capa 1" xmlns="http://www.w3.org/2000/svg" width="24" height="24" viewBox="0 0 24 24">
  <path d="M15,16h4V12H17.5v2.5H15ZM5,10H6.5V7.5H9V6H5ZM8,21V19H4a1.93,1.93,0,0,1-1.41-.59A1.93,1.93,0,0,1,2,17V5a1.93,1.93,0,0,1,.59-1.41A1.93,1.93,0,0,1,4,3H20a1.93,1.93,0,0,1,1.41.59A1.93,1.93,0,0,1,22,5V17a2,2,0,0,1-2,2H16v2ZM4,17H20V5H4Zm0,0v0Z"/>
  <g>
    <path d="M8.33,13.5l1.81-3.39H7.85V9.3h3.29V10L9.45,13.5Z"/>
    <path d="M13.36,13.55a1.71,1.71,0,0,1-1-.27,1.76,1.76,0,0,1-.63-.76,2.89,2.89,0,0,1,0-2.26,1.76,1.76,0,0,1,.63-.76,1.71,1.71,0,0,1,1-.27,1.68,1.68,0,0,1,1,.27,1.85,1.85,0,0,1,.64.76,2.89,2.89,0,0,1,0,2.26,1.85,1.85,0,0,1-.64.76A1.68,1.68,0,0,1,13.36,13.55Zm0-.82a.71.71,0,0,0,.47-.16,1.09,1.09,0,0,0,.32-.47,2.16,2.16,0,0,0,.11-.71,2.22,2.22,0,0,0-.11-.72,1.12,1.12,0,0,0-.32-.46.71.71,0,0,0-.47-.16.71.71,0,0,0-.48.16,1.1,1.1,0,0,0-.31.46,2,2,0,0,0-.11.72,1.93,1.93,0,0,0,.11.71,1.08,1.08,0,0,0,.31.47A.71.71,0,0,0,13.36,12.73Z"/>
    <path d="M15.57,10.82,16,9h1l-.71,1.82Z"/>
    <path d="M17.22,10.82,17.67,9h1l-.71,1.82Z"/>
  </g>
</svg>
