<svg id="Capa_1" data-name="Capa 1" xmlns="http://www.w3.org/2000/svg" width="24" height="24" viewBox="0 0 24 24">
  <path d="M3,22a1.93,1.93,0,0,1-1.41-.59A1.93,1.93,0,0,1,1,20V8a1.93,1.93,0,0,1,.59-1.41A1.93,1.93,0,0,1,3,6H6.15L8,4h6V6H8.87L7.05,8H3V20H19V11h2v9a2,2,0,0,1-2,2Zm8-3.5A4.47,4.47,0,0,0,15.5,14,4.47,4.47,0,0,0,11,9.5,4.47,4.47,0,0,0,6.5,14,4.47,4.47,0,0,0,11,18.5Zm0-2A2.46,2.46,0,0,1,8.5,14,2.48,2.48,0,0,1,11,11.5,2.48,2.48,0,0,1,13.5,14,2.46,2.46,0,0,1,11,16.5Z"/>
  <path d="M16.73,10.72l-3-3.11.74-.77,2.21,2.33,4.73-5,.73.78Z"/>
</svg>
