<svg id="Capa_1" data-name="Capa 1" xmlns="http://www.w3.org/2000/svg" width="24" height="24" viewBox="0 0 24 24">
  <path d="M5.33,20a2.41,2.41,0,0,1-1.77-.73,2.45,2.45,0,0,1-.73-1.77V7.5a2.45,2.45,0,0,1,.73-1.77A2.41,2.41,0,0,1,5.33,5H12a2.49,2.49,0,0,1,2.5,2.5v5.25h.83A1.67,1.67,0,0,1,17,14.42v2.66a.41.41,0,0,0,.13.3.41.41,0,0,0,.58,0,.44.44,0,0,0,.12-.3V11.67a1.62,1.62,0,0,1-1.17-.49A1.6,1.6,0,0,1,16.17,10V7.5H17V5.83h1.25V7.5h.83V5.83h1.25V7.5h.84V10a1.67,1.67,0,0,1-1.67,1.67V17a2.09,2.09,0,0,1-3.56,1.48A2,2,0,0,1,15.33,17V14.33H14.5v2.34A3.35,3.35,0,0,1,11.17,20Zm0-1.67h5.84a1.67,1.67,0,0,0,1.66-1.66,1.6,1.6,0,0,0-.49-1.18A1.58,1.58,0,0,0,11.17,15H7.42a.41.41,0,0,0-.3.13.41.41,0,0,0,0,.58.44.44,0,0,0,.3.12h3.75a.84.84,0,1,1,0,1.67H7.42a2.07,2.07,0,0,1-2.09-2.08,2.08,2.08,0,0,1,2.09-2.09h3.75a3.14,3.14,0,0,1,.86.13,2.91,2.91,0,0,1,.8.37V7.5A.82.82,0,0,0,12,6.67H5.33a.81.81,0,0,0-.59.24.79.79,0,0,0-.24.59v10a.79.79,0,0,0,.24.59A.81.81,0,0,0,5.33,18.33Zm0,0h0Z"/>
  <path d="M7.71,12.25,7.89,11a.22.22,0,0,0-.22-.25h-.6a.22.22,0,0,1-.18-.35l2-2.87a.22.22,0,0,1,.18-.1h.15a.23.23,0,0,1,.22.25l-.2,1.55a.22.22,0,0,0,.22.24h.81a.23.23,0,0,1,.17.37L8.25,12.42a.25.25,0,0,1-.17.08H7.92A.22.22,0,0,1,7.71,12.25Z"/>
</svg>
