<svg id="Capa_1" data-name="Capa 1" xmlns="http://www.w3.org/2000/svg" width="24" height="24" viewBox="0 0 24 24">
  <path d="M10.54,12.53a2.31,2.31,0,0,1,0-.37l-2.3,2.31V16H7.46v-1.5L4.62,11.63V7.86H11.1v3.29a2,2,0,0,1,1.4-.58l.23,0V7.86A1.64,1.64,0,0,0,11.1,6.24V3H9.48V6.24H6.24V3H4.62V6.24a1.54,1.54,0,0,0-1.14.48A1.56,1.56,0,0,0,3,7.86v4.46l2.84,2.84v2.43H9.89V15.16l1.23-1.23A2,2,0,0,1,10.54,12.53Z"/>
  <path d="M16.2,21.31a1.44,1.44,0,0,1-1-.43,1.43,1.43,0,0,1-.23-1.75,1.68,1.68,0,0,1,.53-.53V16.92H13.28a1.47,1.47,0,0,1-1.46-1.46V13.78a1.25,1.25,0,0,1-.53-.49,1.36,1.36,0,0,1-.2-.75,1.47,1.47,0,0,1,1.46-1.46,1.4,1.4,0,0,1,1,.43,1.38,1.38,0,0,1,.43,1,1.35,1.35,0,0,1-.2.73,1.52,1.52,0,0,1-.53.51v1.68h2.19V9.62H14L16.2,6.69l2.19,2.93H16.93v5.84h2.19V14h-.73V11.08h2.93V14h-.73v1.46a1.42,1.42,0,0,1-.43,1,1.4,1.4,0,0,1-1,.43H16.93V18.6a1.4,1.4,0,0,1,.54.51,1.43,1.43,0,0,1,.19.74,1.4,1.4,0,0,1-.43,1A1.42,1.42,0,0,1,16.2,21.31Z"/>
</svg>
