<svg id="Capa_1" data-name="Capa 1" xmlns="http://www.w3.org/2000/svg" width="24" height="24" viewBox="0 0 24 24">
  <g>
    <path d="M8.06,14.76l-.46.47,1.3,1.3a10.24,10.24,0,0,1-3.63-1.26c-.85-.56-1.27-1-1.27-1.44a.94.94,0,0,1,.22-.54,9.68,9.68,0,0,1-1.64-1.18A2.9,2.9,0,0,0,2,13.83c0,1.15.69,2.16,2.08,3a13,13,0,0,0,5.27,1.75L7.6,20.43,9,21.83l4-4L10.28,15.1A15.59,15.59,0,0,1,8.06,14.76Z"/>
    <path d="M19.63,13.12a1.09,1.09,0,0,1,.37.71c0,.38-.35.82-1,1.31a9.32,9.32,0,0,1-3,1.24v2.05a11.49,11.49,0,0,0,4.34-1.83A3.44,3.44,0,0,0,22,13.83a3,3,0,0,0-.76-2A9.36,9.36,0,0,1,19.63,13.12Z"/>
  </g>
  <g>
    <path d="M5.15,12.43V6L3.5,6.63V5L5.84,4H7v8.4Z"/>
    <path d="M9.77,12.43V6l-1.65.68V5l2.34-1h1.16v8.4Z"/>
    <path d="M16.49,12.54a3.36,3.36,0,0,1-1.9-.54,3.62,3.62,0,0,1-1.28-1.52,5.3,5.3,0,0,1-.45-2.26A5.35,5.35,0,0,1,13.31,6a3.59,3.59,0,0,1,1.28-1.51,3.63,3.63,0,0,1,3.81,0A3.57,3.57,0,0,1,19.67,6a5.2,5.2,0,0,1,.46,2.27,5.15,5.15,0,0,1-.46,2.26A3.6,3.6,0,0,1,18.4,12,3.37,3.37,0,0,1,16.49,12.54Zm0-1.64a1.47,1.47,0,0,0,1-.33,2.12,2.12,0,0,0,.62-.93,4.11,4.11,0,0,0,.22-1.42,4.06,4.06,0,0,0-.22-1.43,2.12,2.12,0,0,0-.62-.93,1.47,1.47,0,0,0-1-.33,1.45,1.45,0,0,0-.95.33,2.13,2.13,0,0,0-.63.93,4.3,4.3,0,0,0-.22,1.43,4.37,4.37,0,0,0,.22,1.42,2.13,2.13,0,0,0,.63.93A1.45,1.45,0,0,0,16.49,10.9Z"/>
  </g>
</svg>
