<svg id="Capa_1" data-name="Capa 1" xmlns="http://www.w3.org/2000/svg" width="24" height="24" viewBox="0 0 24 24">
  <path d="M7.68,14.43a.78.78,0,0,0,.58-.24.78.78,0,0,0,.23-.57V11.18a.81.81,0,1,0-1.62,0v2.44a.78.78,0,0,0,.23.57A.78.78,0,0,0,7.68,14.43Zm.81,4.87h3.25V17.67a1.54,1.54,0,0,0-.48-1.14,1.56,1.56,0,0,0-1.15-.48,1.64,1.64,0,0,0-1.62,1.62Zm4.06-4.87a.82.82,0,0,0,.81-.81V11.18a.78.78,0,0,0-.24-.58.78.78,0,0,0-.57-.23.8.8,0,0,0-.58.23.78.78,0,0,0-.23.58v2.44a.74.74,0,0,0,.23.57A.77.77,0,0,0,12.55,14.43Zm-2.44,8.11A7.83,7.83,0,0,1,7,21.9a8,8,0,0,1-4.31-4.31,8.15,8.15,0,0,1,0-6.33A8.14,8.14,0,0,1,4.37,8.69,8.26,8.26,0,0,1,7,7a8.15,8.15,0,0,1,6.33,0,8.21,8.21,0,0,1,4.31,4.31,8.15,8.15,0,0,1,0,6.33,8.26,8.26,0,0,1-1.74,2.58,8.14,8.14,0,0,1-2.57,1.73A7.84,7.84,0,0,1,10.11,22.54Z"/>
  <path d="M18.15,8.34A3.2,3.2,0,0,1,16.9,8.1a2.48,2.48,0,0,1-1-.67l.83-.76a2,2,0,0,0,.61.46,1.77,1.77,0,0,0,.75.13,1.49,1.49,0,0,0,.54-.09A.73.73,0,0,0,19,6.93a.56.56,0,0,0,.12-.36.52.52,0,0,0-.09-.31.59.59,0,0,0-.26-.2A.92.92,0,0,0,18.41,6h-.72V5h.59a.82.82,0,0,0,.53-.16A.58.58,0,0,0,19,4.35.55.55,0,0,0,18.89,4a.74.74,0,0,0-.31-.24,1.06,1.06,0,0,0-.45-.09,1.62,1.62,0,0,0-.7.14,2.13,2.13,0,0,0-.61.5L16,3.54a2.84,2.84,0,0,1,1-.72,3,3,0,0,1,1.21-.26,2.6,2.6,0,0,1,1.08.21,1.67,1.67,0,0,1,.73.56,1.41,1.41,0,0,1,.27.85A1.19,1.19,0,0,1,20,5a1.54,1.54,0,0,1-.77.48,1.63,1.63,0,0,1,.88.43,1.05,1.05,0,0,1,.33.78,1.39,1.39,0,0,1-.29.86,1.85,1.85,0,0,1-.79.59A2.82,2.82,0,0,1,18.15,8.34Z"/>
</svg>
