<svg id="Capa_1" data-name="Capa 1" xmlns="http://www.w3.org/2000/svg" width="24" height="24" viewBox="0 0 24 24">
  <path d="M5.33,20.21a2.49,2.49,0,0,1-2.5-2.5v-10a2.49,2.49,0,0,1,2.5-2.5H12a2.45,2.45,0,0,1,1.77.73,2.41,2.41,0,0,1,.73,1.77V13h.83a1.64,1.64,0,0,1,1.18.49A1.6,1.6,0,0,1,17,14.63V17.3a.39.39,0,0,0,.13.29.41.41,0,0,0,.58,0,.42.42,0,0,0,.12-.29V11.88a1.58,1.58,0,0,1-1.17-.49,1.6,1.6,0,0,1-.49-1.18V7.71H17V6.05h1.25V7.71h.83V6.05h1.25V7.71h.84v2.5a1.64,1.64,0,0,1-.49,1.18,1.6,1.6,0,0,1-1.18.49v5.33a2,2,0,0,1-.6,1.48,2,2,0,0,1-1.48.61,2,2,0,0,1-1.48-.61,2,2,0,0,1-.61-1.48V14.55H14.5v2.33a3.35,3.35,0,0,1-3.33,3.33Zm0-1.66h5.84a1.62,1.62,0,0,0,1.17-.49,1.67,1.67,0,0,0,0-2.36,1.62,1.62,0,0,0-1.17-.49H7.42a.41.41,0,0,0-.3.13.41.41,0,0,0,0,.58.45.45,0,0,0,.3.13h3.75a.81.81,0,0,1,.59.24.85.85,0,0,1,0,1.18.81.81,0,0,1-.59.24H7.42a2.08,2.08,0,1,1,0-4.16h3.75a3.13,3.13,0,0,1,.86.12,2.67,2.67,0,0,1,.8.38V7.71a.81.81,0,0,0-.24-.59A.79.79,0,0,0,12,6.88H5.33a.82.82,0,0,0-.83.83v10a.82.82,0,0,0,.83.84Zm0,0h0Z"/>
  <path d="M7.08,12v-.66L8.86,9.58A1,1,0,0,0,9,9.39a.66.66,0,0,0,.09-.19.58.58,0,0,0,0-.19A.42.42,0,0,0,9,8.67a.7.7,0,0,0-.44-.13A1.21,1.21,0,0,0,8,8.66a2,2,0,0,0-.53.39l-.52-.63a2.64,2.64,0,0,1,.77-.51,2,2,0,0,1,.84-.18,1.87,1.87,0,0,1,.78.16,1.16,1.16,0,0,1,.52.42A1.1,1.1,0,0,1,10,9a1.21,1.21,0,0,1-.06.38,1.35,1.35,0,0,1-.18.36,2,2,0,0,1-.31.36L8.28,11.22H10.1V12Z"/>
</svg>
