<svg id="Capa_1" data-name="Capa 1" xmlns="http://www.w3.org/2000/svg" width="24" height="24" viewBox="0 0 24 24">
  <g>
    <path d="M1.93,14.84A3.72,3.72,0,0,0,4,17.89a13.1,13.1,0,0,0,5.28,1.75l-1.75,1.8,1.4,1.4,4-4-2.72-2.73A15.59,15.59,0,0,1,8,15.77l-.46.47,1.3,1.3A10,10,0,0,1,5.2,16.27c-.85-.55-1.27-1-1.27-1.43a.84.84,0,0,1,.18-.46,12.24,12.24,0,0,1-1.94-.64A2.75,2.75,0,0,0,1.93,14.84Z"/>
    <path d="M19.93,14.84c0,.38-.35.82-1,1.31a9.32,9.32,0,0,1-3,1.24v2.05a11.49,11.49,0,0,0,4.34-1.83,3.48,3.48,0,0,0,1.66-2.77,2.8,2.8,0,0,0-.3-1.24,9.32,9.32,0,0,1-1.94.7A1,1,0,0,1,19.93,14.84Z"/>
  </g>
  <g>
    <path d="M4.06,13.6a4.84,4.84,0,0,1-1.88-.36,4,4,0,0,1-1.44-1L2,11.09a2.81,2.81,0,0,0,.91.69A2.79,2.79,0,0,0,4,12a2.39,2.39,0,0,0,.8-.13,1.14,1.14,0,0,0,.53-.36.89.89,0,0,0,.18-.55.76.76,0,0,0-.13-.46.91.91,0,0,0-.39-.3,1.31,1.31,0,0,0-.58-.11H3.36V8.54h.89a1.21,1.21,0,0,0,.8-.24.88.88,0,0,0,.29-.69.94.94,0,0,0-.17-.54,1.31,1.31,0,0,0-.47-.36A1.62,1.62,0,0,0,4,6.58a2.35,2.35,0,0,0-1,.21,3.36,3.36,0,0,0-.92.75L.8,6.4A4.19,4.19,0,0,1,2.27,5.32a4.41,4.41,0,0,1,1.82-.39,3.87,3.87,0,0,1,1.62.31,2.54,2.54,0,0,1,1.09.85,2.07,2.07,0,0,1,.4,1.27,1.83,1.83,0,0,1-.44,1.2,2.39,2.39,0,0,1-1.16.72,2.35,2.35,0,0,1,1.32.64,1.59,1.59,0,0,1,.5,1.18A2,2,0,0,1,7,12.38a2.76,2.76,0,0,1-1.18.89A4.35,4.35,0,0,1,4.06,13.6Z"/>
    <path d="M12.18,13.6a3.57,3.57,0,0,1-1.94-.53A3.49,3.49,0,0,1,9,11.6a4.92,4.92,0,0,1-.47-2.2A5.12,5.12,0,0,1,9,7.05a3.79,3.79,0,0,1,1.43-1.56A4.26,4.26,0,0,1,14,5.18a3.13,3.13,0,0,1,1.15.66L14.05,7.16a2.24,2.24,0,0,0-.74-.43,2.45,2.45,0,0,0-.89-.14,1.93,1.93,0,0,0-1.15.33,2.08,2.08,0,0,0-.71,1,4.41,4.41,0,0,0-.24,1.56,2.78,2.78,0,0,1,1-.88,2.4,2.4,0,0,1,1.19-.31,3.23,3.23,0,0,1,1.46.32,2.5,2.5,0,0,1,1,.9,2.47,2.47,0,0,1,.36,1.32,2.64,2.64,0,0,1-.4,1.42,2.83,2.83,0,0,1-1.11,1A3.46,3.46,0,0,1,12.18,13.6Zm0-3.89a2.32,2.32,0,0,0-1,.19,2.44,2.44,0,0,0-.77.54,2.73,2.73,0,0,0,.35.83,1.75,1.75,0,0,0,.57.55,1.42,1.42,0,0,0,.73.19,1.61,1.61,0,0,0,.71-.15,1.27,1.27,0,0,0,.5-.41,1.07,1.07,0,0,0,.19-.6,1.11,1.11,0,0,0-.17-.6,1.2,1.2,0,0,0-.46-.4A1.67,1.67,0,0,0,12.16,9.71Z"/>
    <path d="M19.92,13.57A3.39,3.39,0,0,1,18,13a3.57,3.57,0,0,1-1.27-1.51,5.34,5.34,0,0,1-.46-2.27A5.38,5.38,0,0,1,16.74,7,3.63,3.63,0,0,1,18,5.47a3.65,3.65,0,0,1,3.82,0A3.63,3.63,0,0,1,23.1,7a5.38,5.38,0,0,1,.46,2.27,5.34,5.34,0,0,1-.46,2.27A3.57,3.57,0,0,1,21.83,13,3.39,3.39,0,0,1,19.92,13.57Zm0-1.63a1.43,1.43,0,0,0,.95-.33,2.11,2.11,0,0,0,.63-.94,4,4,0,0,0,.22-1.42,4.09,4.09,0,0,0-.22-1.43,2.13,2.13,0,0,0-.63-.93,1.53,1.53,0,0,0-1.9,0,2.13,2.13,0,0,0-.63.93,4.09,4.09,0,0,0-.22,1.43,4,4,0,0,0,.22,1.42,2.11,2.11,0,0,0,.63.94A1.43,1.43,0,0,0,19.92,11.94Z"/>
  </g>
</svg>
