<svg id="Capa_1" data-name="Capa 1" xmlns="http://www.w3.org/2000/svg" width="24" height="24" viewBox="0 0 24 24">
  <path d="M11.64,15.1l1,1h.46v-1Zm0,0,1,1h.46v-1Zm0,0,1,1h.46v-1Zm0,0,1,1h.46v-1Zm0,0,1,1h.46v-1Zm0,0,1,1h.46v-1Zm0,0,1,1h.46v-1Zm4-7.4L9.94,2h-1V9.6L4.34,5,2.94,6.4,8.54,12l-5.6,5.6L4.34,19l4.6-4.6v3.79L9.1,14.7h1.84v-.3l.3.3h2.31v1.85h-1l-.3.3a1.65,1.65,0,0,1,.44.16,2,2,0,0,1,.83.74,2.28,2.28,0,0,1,.2.45l1.89-1.9L11.34,12Zm-4.7,1.9V5.85l1.9,1.85ZM13.21,18a1.67,1.67,0,0,0-.66-.6,2.05,2.05,0,0,0-.61-.18l-1,.94a.47.47,0,0,1,.17,0,1.15,1.15,0,0,1,.74.24.71.71,0,0,1,.29.58.68.68,0,0,1-.13.42.75.75,0,0,1-.34.29,1.29,1.29,0,0,1-.51.1,2,2,0,0,1-.69-.13,2.61,2.61,0,0,1-.69-.42L9.09,20a3,3,0,0,0,2.05.75h0l2.26-2.26A1.55,1.55,0,0,0,13.21,18Zm-1.57.69a.77.77,0,0,0-.49-.15,1.33,1.33,0,0,0-.34.05,2.48,2.48,0,0,0-.38.17l-.15.09-.45-.14.25.2a2.05,2.05,0,0,0,.57.36,1.45,1.45,0,0,0,.55.1.69.69,0,0,0,.34-.07.37.37,0,0,0,.18-.14.34.34,0,0,0,.06-.2A.33.33,0,0,0,11.64,18.65Zm-.7-2.5v-1H9.48l-.13,3,.88.27a2.13,2.13,0,0,1,.47-.21l.24-.05v-.9a2.22,2.22,0,0,0-.43.15l.06-1.22Zm-2,4.28V22h1l.83-.83A3.33,3.33,0,0,1,8.94,20.43Zm0-2V19.6l.82-1Zm2.7-3.31,1,1h.46v-1Zm0,0,1,1h.46v-1Zm0,0,1,1h.46v-1Zm0,0,1,1h.46v-1Zm0,0,1,1h.46v-1Z"/>
  <g>
    <path d="M13.41,18.53a1.55,1.55,0,0,0-.2-.57,1.67,1.67,0,0,0-.66-.6,2.05,2.05,0,0,0-.61-.18,2.38,2.38,0,0,0-.39,0,2.77,2.77,0,0,0-.49,0,.53.53,0,0,0-.12,0,2.22,2.22,0,0,0-.43.15l.06-1.22h2.58v-1H9.48l-.13,3,.88.27a2.13,2.13,0,0,1,.47-.21l.24-.05v0l0,0a.47.47,0,0,1,.17,0,1.15,1.15,0,0,1,.74.24.71.71,0,0,1,.29.58.68.68,0,0,1-.13.42.75.75,0,0,1-.34.29,1.29,1.29,0,0,1-.51.1,2,2,0,0,1-.69-.13,2.61,2.61,0,0,1-.69-.42L9.09,20a3,3,0,0,0,2.05.75h0a2.82,2.82,0,0,0,1.2-.24,2,2,0,0,0,.8-.68,1.74,1.74,0,0,0,.29-1A1.69,1.69,0,0,0,13.41,18.53Zm-4.48-.12h0v0Z"/>
    <path d="M13.41,18.53a1.55,1.55,0,0,0-.2-.57,1.67,1.67,0,0,0-.66-.6,2.05,2.05,0,0,0-.61-.18,2.38,2.38,0,0,0-.39,0,2.77,2.77,0,0,0-.49,0,.53.53,0,0,0-.12,0,2.22,2.22,0,0,0-.43.15l.06-1.22h2.58v-1H9.48l-.13,3,.88.27a2.13,2.13,0,0,1,.47-.21l.24-.05s0,0,0,0a.47.47,0,0,1,.17,0,1.15,1.15,0,0,1,.74.24.71.71,0,0,1,.29.58.68.68,0,0,1-.13.42.75.75,0,0,1-.34.29,1.29,1.29,0,0,1-.51.1,2,2,0,0,1-.69-.13,2.61,2.61,0,0,1-.69-.42L9.09,20a3,3,0,0,0,2.05.75h0a2.82,2.82,0,0,0,1.2-.24,2,2,0,0,0,.8-.68,1.74,1.74,0,0,0,.29-1A1.69,1.69,0,0,0,13.41,18.53Z"/>
    <path d="M15.5,20a.73.73,0,0,1-.22.54.7.7,0,0,1-1,0A.73.73,0,0,1,14,20a.69.69,0,0,1,.22-.53.68.68,0,0,1,1,0A.69.69,0,0,1,15.5,20Z"/>
    <path d="M15.28,19.5a.68.68,0,0,0-1,0A.69.69,0,0,0,14,20a.73.73,0,0,0,.22.54.7.7,0,0,0,1,0A.73.73,0,0,0,15.5,20,.69.69,0,0,0,15.28,19.5Z"/>
    <path d="M20.53,16.38a2.39,2.39,0,0,0-.85-1,2.36,2.36,0,0,0-2.54,0,2.32,2.32,0,0,0-.85,1A3.62,3.62,0,0,0,16,17.9a3.57,3.57,0,0,0,.31,1.51,2.35,2.35,0,0,0,.85,1,2.23,2.23,0,0,0,1.27.36,2.25,2.25,0,0,0,1.27-.36,2.42,2.42,0,0,0,.85-1,3.57,3.57,0,0,0,.3-1.51A3.62,3.62,0,0,0,20.53,16.38Zm-1.07,2.46a1.53,1.53,0,0,1-.41.63,1,1,0,0,1-.64.22,1,1,0,0,1-.64-.22,1.44,1.44,0,0,1-.41-.63,2.69,2.69,0,0,1-.15-.94,2.76,2.76,0,0,1,.15-1,1.47,1.47,0,0,1,.41-.62,1,1,0,0,1,.64-.22,1,1,0,0,1,.64.22,1.56,1.56,0,0,1,.41.62,2.76,2.76,0,0,1,.15,1A2.69,2.69,0,0,1,19.46,18.84Z"/>
    <path d="M20.53,16.38a2.39,2.39,0,0,0-.85-1,2.36,2.36,0,0,0-2.54,0,2.32,2.32,0,0,0-.85,1A3.62,3.62,0,0,0,16,17.9a3.57,3.57,0,0,0,.31,1.51,2.35,2.35,0,0,0,.85,1,2.23,2.23,0,0,0,1.27.36,2.25,2.25,0,0,0,1.27-.36,2.42,2.42,0,0,0,.85-1,3.57,3.57,0,0,0,.3-1.51A3.62,3.62,0,0,0,20.53,16.38Zm-1.07,2.46a1.53,1.53,0,0,1-.41.63,1,1,0,0,1-.64.22,1,1,0,0,1-.64-.22,1.44,1.44,0,0,1-.41-.63,2.69,2.69,0,0,1-.15-.94,2.76,2.76,0,0,1,.15-1,1.47,1.47,0,0,1,.41-.62,1,1,0,0,1,.64-.22,1,1,0,0,1,.64.22,1.56,1.56,0,0,1,.41.62,2.76,2.76,0,0,1,.15,1A2.69,2.69,0,0,1,19.46,18.84Z"/>
  </g>
</svg>
