<svg id="Capa_1" data-name="Capa 1" xmlns="http://www.w3.org/2000/svg" width="24" height="24" viewBox="0 0 24 24">
  <g>
    <path d="M20,4.08h-.56v.71H20a.4.4,0,0,0,.31-.11.34.34,0,0,0,0-.5A.4.4,0,0,0,20,4.08Z"/>
    <path d="M16,2V8h6V2Zm2.18,4.31h-.69V3.51h.69ZM21,4.89a.87.87,0,0,1-.34.32,1.12,1.12,0,0,1-.53.12h-.68v1h-.68V3.51h1.36a1.12,1.12,0,0,1,.53.12A.9.9,0,0,1,21,4a.94.94,0,0,1,.12.47A.9.9,0,0,1,21,4.89Z"/>
    <path d="M21.8,10H19.75a8.8,8.8,0,0,1,.19,1,8.36,8.36,0,0,1,0,2,8.8,8.8,0,0,1-.19,1h-3.4c0-.33.09-.67.11-1s0-.67,0-1,0-.67,0-1-.06-.67-.11-1h-2c.05.33.09.67.11,1s0,.67,0,1,0,.67,0,1-.06.67-.11,1H9.65c-.05-.33-.09-.67-.11-1s0-.67,0-1,0-.67,0-1,.06-.67.11-1H13V8H10.1a12.14,12.14,0,0,1,.78-2.06A12,12,0,0,1,12,4.05a8.39,8.39,0,0,1,1,.06l1,.11v-2l-1-.11A8.39,8.39,0,0,0,12,2a9.68,9.68,0,0,0-3.9.79A9.83,9.83,0,0,0,4.93,4.92,10,10,0,0,0,2.79,8.1,9.68,9.68,0,0,0,2,12a9.68,9.68,0,0,0,.79,3.9A10,10,0,0,0,8.1,21.21,9.68,9.68,0,0,0,12,22a9.68,9.68,0,0,0,3.9-.79,10,10,0,0,0,5.31-5.31A9.68,9.68,0,0,0,22,12c0-.33,0-.67-.05-1A8.62,8.62,0,0,0,21.8,10ZM4.25,14a8.8,8.8,0,0,1-.19-1,8.36,8.36,0,0,1,0-2,8.8,8.8,0,0,1,.19-1h3.4c-.05.33-.09.67-.11,1s0,.67,0,1,0,.67,0,1,.06.67.11,1Zm2.68,4.19A7.75,7.75,0,0,1,5.1,16h3a15.81,15.81,0,0,0,.56,1.81,16.92,16.92,0,0,0,.79,1.74A7.36,7.36,0,0,1,6.93,18.19Zm1.68-12A15.81,15.81,0,0,0,8.05,8h-3A7.75,7.75,0,0,1,6.93,5.81,7.36,7.36,0,0,1,9.4,4.45,16.92,16.92,0,0,0,8.61,6.19Zm4.52,11.87A12.93,12.93,0,0,1,12,20a12,12,0,0,1-1.12-1.89A12.14,12.14,0,0,1,10.1,16h3.8A13,13,0,0,1,13.13,18.06Zm3.94.13a7.36,7.36,0,0,1-2.47,1.36,16.92,16.92,0,0,0,.79-1.74A15.81,15.81,0,0,0,16,16H18.9A7.75,7.75,0,0,1,17.07,18.19Z"/>
  </g>
</svg>
