<svg id="Capa_1" data-name="Capa 1" xmlns="http://www.w3.org/2000/svg" width="24" height="24" viewBox="0 0 24 24">
  <path d="M1,16.61v-2H5v2Zm5.35-5.25L3.52,8.54l1.4-1.43L7.75,10ZM7,19.61v-3H17v3Zm4-11v-5h2v5Zm6.65,2.75L16.25,10l2.83-2.82,1.42,1.4ZM19,16.61v-2h4v2Z"/>
  <g>
    <path d="M8.45,15.35v-.66l1.77-1.75a1.24,1.24,0,0,0,.16-.19.82.82,0,0,0,.09-.19.68.68,0,0,0,0-.19.42.42,0,0,0-.17-.34.72.72,0,0,0-.44-.14,1.18,1.18,0,0,0-.53.12,2.13,2.13,0,0,0-.54.4l-.51-.63a2.64,2.64,0,0,1,.76-.52,2.21,2.21,0,0,1,.84-.17,1.89,1.89,0,0,1,.79.15,1.3,1.3,0,0,1,.52.43,1.12,1.12,0,0,1,.18.64,1.58,1.58,0,0,1-.05.38,1.29,1.29,0,0,1-.18.35,2,2,0,0,1-.31.36L9.65,14.57h1.81v.78Z"/>
    <path d="M13.79,15.41a1.68,1.68,0,0,1-.95-.27,1.78,1.78,0,0,1-.64-.76A2.65,2.65,0,0,1,12,13.25a2.73,2.73,0,0,1,.23-1.14,1.81,1.81,0,0,1,.64-.75,1.68,1.68,0,0,1,.95-.27,1.71,1.71,0,0,1,1,.27,1.79,1.79,0,0,1,.63.75,2.73,2.73,0,0,1,.23,1.14,2.65,2.65,0,0,1-.23,1.13,1.76,1.76,0,0,1-.63.76A1.71,1.71,0,0,1,13.79,15.41Zm0-.82a.73.73,0,0,0,.48-.16,1.08,1.08,0,0,0,.31-.47,2.38,2.38,0,0,0,0-1.43,1,1,0,0,0-.31-.46.74.74,0,0,0-.48-.17.76.76,0,0,0-.48.17,1.13,1.13,0,0,0-.31.46A2.38,2.38,0,0,0,13,14a1.17,1.17,0,0,0,.31.47A.75.75,0,0,0,13.79,14.59Z"/>
  </g>
</svg>
