<svg id="Capa_1" data-name="Capa 1" xmlns="http://www.w3.org/2000/svg" width="24" height="24" viewBox="0 0 24 24">
  <defs>
    <style>
      .cls-1 {
        fill: none;
        stroke: #000;
        stroke-miterlimit: 10;
      }
    </style>
  </defs>
  <path d="M11.3,20l5-9.75H12.8V4l-5,9.75h3.5Zm.7,2a9.68,9.68,0,0,1-3.9-.79A9.87,9.87,0,0,1,2.79,15.9,9.68,9.68,0,0,1,2,12a9.68,9.68,0,0,1,.79-3.9A9.87,9.87,0,0,1,8.1,2.79,9.68,9.68,0,0,1,12,2a9.68,9.68,0,0,1,3.9.79A9.87,9.87,0,0,1,21.21,8.1,9.68,9.68,0,0,1,22,12a9.68,9.68,0,0,1-.79,3.9,9.87,9.87,0,0,1-5.31,5.31A9.68,9.68,0,0,1,12,22Z"/>
  <circle class="cls-1" cx="12" cy="12" r="11.05"/>
</svg>
