<svg id="Capa_1" data-name="Capa 1" xmlns="http://www.w3.org/2000/svg" width="24" height="24" viewBox="0 0 24 24">
  <path d="M14.57,15.23v2.14l1.07-1.07Zm-1.91-.13-.48.54.66.66-1.9,1.85V17L9.72,18.42v1h2.76l1.69-1.69V15.1Zm.21,3.28H11.22l1.65-1.85ZM15.64,7.7,9.94,2h-1V9.6L4.34,5,2.94,6.4,8.54,12l-5.6,5.6L4.34,19l4.6-4.6V22h1l2.14-2.14H9.32v-1.6l1.62-1.83v-2l1,1,.58-.66H14L11.34,12Zm-4.7-1.85,1.9,1.85-1.9,1.9Z"/>
  <g>
    <path d="M14.17,18.38V15.1H12.66l-.48.54L10.94,17,9.72,18.42v1h3.15V20.7h1.3V19.46h.7V18.38Zm-2.95,0,1.65-1.85v1.85Z"/>
    <path d="M14.17,18.38V15.1H12.66l-.48.54L10.94,17,9.72,18.42v1h3.15V20.7h1.3V19.46h.7V18.38Zm-2.95,0,1.65-1.85v1.85Z"/>
    <path d="M16.78,20a.76.76,0,0,1-.21.54.67.67,0,0,1-.51.22.7.7,0,0,1-.52-.22.76.76,0,0,1-.21-.54.72.72,0,0,1,.21-.53.71.71,0,0,1,.52-.23.68.68,0,0,1,.51.23A.72.72,0,0,1,16.78,20Z"/>
    <path d="M16.57,19.5a.68.68,0,0,0-.51-.23.71.71,0,0,0-.52.23.72.72,0,0,0-.21.53.76.76,0,0,0,.21.54.7.7,0,0,0,.52.22.67.67,0,0,0,.51-.22.76.76,0,0,0,.21-.54A.72.72,0,0,0,16.57,19.5Z"/>
    <path d="M21.82,16.38a2.46,2.46,0,0,0-.85-1A2.18,2.18,0,0,0,19.7,15a2.21,2.21,0,0,0-1.28.37,2.37,2.37,0,0,0-.84,1,3.47,3.47,0,0,0-.31,1.52,3.42,3.42,0,0,0,.31,1.51,2.4,2.4,0,0,0,.84,1,2.28,2.28,0,0,0,1.28.36A2.25,2.25,0,0,0,21,20.42a2.49,2.49,0,0,0,.85-1,3.57,3.57,0,0,0,.3-1.51A3.62,3.62,0,0,0,21.82,16.38Zm-1.07,2.46a1.46,1.46,0,0,1-.42.63,1,1,0,0,1-1.27,0,1.46,1.46,0,0,1-.42-.63,3,3,0,0,1-.14-.94,3,3,0,0,1,.14-1,1.48,1.48,0,0,1,.42-.62,1,1,0,0,1,1.27,0,1.48,1.48,0,0,1,.42.62,2.76,2.76,0,0,1,.15,1A2.69,2.69,0,0,1,20.75,18.84Z"/>
    <path d="M21.82,16.38a2.46,2.46,0,0,0-.85-1A2.18,2.18,0,0,0,19.7,15a2.21,2.21,0,0,0-1.28.37,2.37,2.37,0,0,0-.84,1,3.47,3.47,0,0,0-.31,1.52,3.42,3.42,0,0,0,.31,1.51,2.4,2.4,0,0,0,.84,1,2.28,2.28,0,0,0,1.28.36A2.25,2.25,0,0,0,21,20.42a2.49,2.49,0,0,0,.85-1,3.57,3.57,0,0,0,.3-1.51A3.62,3.62,0,0,0,21.82,16.38Zm-1.07,2.46a1.46,1.46,0,0,1-.42.63,1,1,0,0,1-1.27,0,1.46,1.46,0,0,1-.42-.63,3,3,0,0,1-.14-.94,3,3,0,0,1,.14-1,1.48,1.48,0,0,1,.42-.62,1,1,0,0,1,1.27,0,1.48,1.48,0,0,1,.42.62,2.76,2.76,0,0,1,.15,1A2.69,2.69,0,0,1,20.75,18.84Z"/>
  </g>
</svg>
