<svg id="Capa_1" data-name="Capa 1" xmlns="http://www.w3.org/2000/svg" width="24" height="24" viewBox="0 0 24 24">
  <path d="M17.14,4.11A7,7,0,0,0,12,2,7,7,0,0,0,6.86,4.11,7,7,0,0,0,4.75,9.25a7.09,7.09,0,0,0,.89,3.48A7.29,7.29,0,0,0,8,15.3v3.55a2,2,0,0,0,2,2,2.23,2.23,0,0,0,.83.84,2.36,2.36,0,0,0,2.34,0,2.23,2.23,0,0,0,.83-.84,2,2,0,0,0,2-2V15.3a7.32,7.32,0,0,0,2.36-2.55,7,7,0,0,0,.89-3.5A7,7,0,0,0,17.14,4.11ZM14,18.85H10V18h4ZM14,17H10V16h4ZM16.5,9.4H14.63l1.44,1.46-.63.63L13.35,9.4h-.9v.9l2.09,2.09-.63.63-1.46-1.44v1.87h-.9V11.58L10.09,13l-.63-.63,2.09-2.09V9.4h-.9L8.56,11.49l-.63-.63L9.37,9.4H7.5V8.5H9.37L7.93,7l.63-.63L10.65,8.5h.9V7.6L9.46,5.51l.63-.63,1.46,1.44V4.45h.9V6.32l1.46-1.44.63.63L12.45,7.6v.9h.9l2.09-2.09.63.63L14.63,8.5H16.5Z"/>
</svg>
