<svg id="Capa_1" data-name="Capa 1" xmlns="http://www.w3.org/2000/svg" width="24" height="24" viewBox="0 0 24 24">
  <g>
    <path d="M3.33,11.62A3.26,3.26,0,0,0,2,14.14c0,1.15.69,2.16,2.08,3.05a13,13,0,0,0,5.27,1.75L7.6,20.74,9,22.14l4-4-4-4-1.4,1.4,1.3,1.3a9.84,9.84,0,0,1-3.62-1.27C4.42,15,4,14.54,4,14.14s.37-.82,1.09-1.3A6.31,6.31,0,0,1,3.33,11.62Z"/>
    <path d="M20.67,11.62a6.31,6.31,0,0,1-1.76,1.22c.72.48,1.09.92,1.09,1.3s-.35.82-1,1.31a9.32,9.32,0,0,1-3,1.24v2a11.49,11.49,0,0,0,4.34-1.83A3.45,3.45,0,0,0,22,14.14,3.26,3.26,0,0,0,20.67,11.62Z"/>
  </g>
  <g>
    <path d="M7.72,3.61a3.57,3.57,0,0,1,1.94.53A3.51,3.51,0,0,1,11,5.61a5.05,5.05,0,0,1,.46,2.2,5.11,5.11,0,0,1-.51,2.34,3.76,3.76,0,0,1-1.43,1.57,4.06,4.06,0,0,1-2.14.56A4.13,4.13,0,0,1,5.93,12a3.27,3.27,0,0,1-1.15-.65l1.07-1.32a2.24,2.24,0,0,0,.74.43,2.48,2.48,0,0,0,.89.14,1.93,1.93,0,0,0,1.15-.33,2.14,2.14,0,0,0,.71-1,4.49,4.49,0,0,0,.24-1.56,2.84,2.84,0,0,1-.95.88,2.39,2.39,0,0,1-1.2.31A3.23,3.23,0,0,1,6,8.62a2.5,2.5,0,0,1-1-.9A2.47,2.47,0,0,1,4.61,6.4,2.57,2.57,0,0,1,5,5a2.71,2.71,0,0,1,1.1-1A3.4,3.4,0,0,1,7.72,3.61Zm0,3.89a2.3,2.3,0,0,0,.95-.19,2.44,2.44,0,0,0,.77-.54,2.73,2.73,0,0,0-.35-.83,1.83,1.83,0,0,0-.56-.55,1.43,1.43,0,0,0-.74-.19,1.66,1.66,0,0,0-.72.15,1.35,1.35,0,0,0-.5.41,1,1,0,0,0-.17.6,1.1,1.1,0,0,0,.16.6,1.23,1.23,0,0,0,.47.4A1.67,1.67,0,0,0,7.75,7.5Z"/>
    <path d="M16.13,12.25a3.39,3.39,0,0,1-1.91-.54A3.64,3.64,0,0,1,13,10.2a5.35,5.35,0,0,1-.45-2.27A5.3,5.3,0,0,1,13,5.67a3.67,3.67,0,0,1,1.27-1.52,3.65,3.65,0,0,1,3.82,0,3.6,3.6,0,0,1,1.27,1.52,5.15,5.15,0,0,1,.46,2.26,5.2,5.2,0,0,1-.46,2.27A3.57,3.57,0,0,1,18,11.71,3.37,3.37,0,0,1,16.13,12.25Zm0-1.63a1.47,1.47,0,0,0,1-.33,2.2,2.2,0,0,0,.62-.93,4.13,4.13,0,0,0,.22-1.43,4.13,4.13,0,0,0-.22-1.43,2.23,2.23,0,0,0-.62-.92,1.47,1.47,0,0,0-1-.33,1.45,1.45,0,0,0-.95.33,2.16,2.16,0,0,0-.63.92,4.38,4.38,0,0,0-.22,1.43,4.38,4.38,0,0,0,.22,1.43,2.13,2.13,0,0,0,.63.93A1.45,1.45,0,0,0,16.13,10.62Z"/>
  </g>
</svg>
