<svg id="Capa_1" data-name="Capa 1" xmlns="http://www.w3.org/2000/svg" width="24" height="24" viewBox="0 0 24 24">
  <path d="M1,16.61v-2H5v2Zm5.35-5.25L3.52,8.54l1.4-1.43L7.75,10ZM7,19.61v-3H17v3Zm4-11v-5h2v5Zm6.65,2.75L16.25,10l2.83-2.82,1.42,1.4ZM19,16.61v-2h4v2Z"/>
  <g>
    <path d="M9.79,15.35V12.11L9,12.46v-.82l1.17-.49h.58v4.2Z"/>
    <path d="M13.16,15.41a1.69,1.69,0,0,1-1-.27,1.85,1.85,0,0,1-.64-.76,2.65,2.65,0,0,1-.22-1.13,2.73,2.73,0,0,1,.22-1.14,1.89,1.89,0,0,1,.64-.75,1.82,1.82,0,0,1,1.91,0,1.89,1.89,0,0,1,.64.75A2.73,2.73,0,0,1,15,13.25a2.65,2.65,0,0,1-.22,1.13,1.85,1.85,0,0,1-.64.76A1.68,1.68,0,0,1,13.16,15.41Zm0-.82a.71.71,0,0,0,.47-.16,1,1,0,0,0,.31-.47,2.19,2.19,0,0,0,0-1.43,1,1,0,0,0-.31-.46.71.71,0,0,0-.47-.17.72.72,0,0,0-.48.17,1,1,0,0,0-.31.46,2.19,2.19,0,0,0,0,1.43,1,1,0,0,0,.31.47A.71.71,0,0,0,13.16,14.59Z"/>
  </g>
</svg>
