<svg id="Capa_1" data-name="Capa 1" xmlns="http://www.w3.org/2000/svg" width="24" height="24" viewBox="0 0 24 24">
  <path d="M20,20H15c0-.33,0-.67,0-1s-.06-.67-.11-1H20V6H4V7.15C3.67,7.1,3.33,7.06,3,7S2.33,7,2,7V6a1.93,1.93,0,0,1,.59-1.41A1.93,1.93,0,0,1,4,4H20a2,2,0,0,1,2,2V18a2,2,0,0,1-2,2ZM2,20V17a2.86,2.86,0,0,1,2.12.88A2.86,2.86,0,0,1,5,20Zm5,0a4.86,4.86,0,0,0-1.46-3.54A4.86,4.86,0,0,0,2,15V13a6.75,6.75,0,0,1,5,2,6.75,6.75,0,0,1,2,5Zm4,0a8.77,8.77,0,0,0-.71-3.51,9.26,9.26,0,0,0-1.93-2.85,9.26,9.26,0,0,0-2.85-1.93A8.77,8.77,0,0,0,2,11V9a10.72,10.72,0,0,1,4.27.86,11,11,0,0,1,3.5,2.37,11.16,11.16,0,0,1,2.37,3.5A10.72,10.72,0,0,1,13,20Z"/>
</svg>
