<svg id="Capa_1" data-name="Capa 1" xmlns="http://www.w3.org/2000/svg" width="24" height="24" viewBox="0 0 24 24">
  <path d="M17.89,21.67l-1.3-3.23a1.86,1.86,0,0,0-.74-.92,2,2,0,0,0-1.11-.33H13.47a.38.38,0,0,1-.38-.38V14.32h1.82a1.5,1.5,0,0,0,1.5-1.5V3.17a1.5,1.5,0,0,0-1.5-1.5H9.27a1.49,1.49,0,0,0-1.49,1.5v9.65a1.49,1.49,0,0,0,1.49,1.5h1.82v2.49a.38.38,0,0,1-.37.38H9.44a2,2,0,0,0-1.12.33,1.9,1.9,0,0,0-.73.92L6.3,21.67a.38.38,0,0,0,.34.52h1.2A.39.39,0,0,0,8.19,22l1-2.53a.36.36,0,0,1,.35-.23h5.09a.38.38,0,0,1,.35.23L16,22a.37.37,0,0,0,.35.24h1.19A.39.39,0,0,0,17.89,21.67ZM12.74,10.76H11.51V6.44L10.4,6.9V5.81L12,5.16h.78Z"/>
</svg>
