<svg id="Capa_1" data-name="Capa 1" xmlns="http://www.w3.org/2000/svg" width="24" height="24" viewBox="0 0 24 24">
  <path d="M20,5V4a1,1,0,0,0-1-1H17a1,1,0,0,0-1,1V5H15V9a1,1,0,0,0,1,1h1v7a2,2,0,0,1-4,0v-.25a5.84,5.84,0,0,1-1.5.92.49.49,0,0,0-.3.59A3.94,3.94,0,0,0,12,19.69,4.11,4.11,0,0,0,15.2,21,3.89,3.89,0,0,0,18,19.65a4.2,4.2,0,0,0,1-2.83V10h1a1,1,0,0,0,1-1V5Z"/>
  <path d="M12,4.31l-.12-.13A4,4,0,0,0,8.88,3a3.87,3.87,0,0,0-3,1.48A3.85,3.85,0,0,0,5,7v7H4a1,1,0,0,0-1,1v4H4v1a1,1,0,0,0,1,1H7a1,1,0,0,0,1-1V19H9V15a1,1,0,0,0-1-1H7V7A2,2,0,0,1,9,5a1.93,1.93,0,0,1,1.41.59,2,2,0,0,1,.5.82l.3,0A1.23,1.23,0,0,0,12,4.31Z"/>
  <path d="M9.77,17l.43-3a.52.52,0,0,0-.51-.58H8.3a.52.52,0,0,1-.43-.81L12.5,6a.5.5,0,0,1,.42-.22h.33a.51.51,0,0,1,.51.57L13.32,9.9a.51.51,0,0,0,.5.58H15.7a.51.51,0,0,1,.4.84L11,17.4a.53.53,0,0,1-.4.19h-.35A.52.52,0,0,1,9.77,17Z"/>
</svg>
