<svg id="Capa_1" data-name="Capa 1" xmlns="http://www.w3.org/2000/svg" width="24" height="24" viewBox="0 0 24 24">
  <path d="M5,19.57a2.41,2.41,0,0,1-1.77-.73,2.41,2.41,0,0,1-.73-1.77v-10A2.38,2.38,0,0,1,3.19,5.3,2.38,2.38,0,0,1,5,4.57h6.66a2.49,2.49,0,0,1,2.5,2.5v5.25H15A1.67,1.67,0,0,1,16.62,14v2.67a.37.37,0,0,0,.13.29.42.42,0,0,0,.71-.29V11.23a1.6,1.6,0,0,1-1.18-.49,1.58,1.58,0,0,1-.49-1.17V7.07h.83V5.4h1.25V7.07h.84V5.4H20V7.07h.83v2.5a1.58,1.58,0,0,1-.49,1.17,1.6,1.6,0,0,1-1.18.49v5.34a2.08,2.08,0,1,1-4.16,0V13.9h-.84v2.33a3.35,3.35,0,0,1-3.33,3.34ZM5,17.9h5.83A1.6,1.6,0,0,0,12,17.41a1.64,1.64,0,0,0,.49-1.18,1.67,1.67,0,0,0-1.67-1.66H7a.4.4,0,0,0-.29.12A.42.42,0,0,0,7,15.4h3.75a.79.79,0,0,1,.59.24.86.86,0,0,1,0,1.19.79.79,0,0,1-.59.24H7A2.07,2.07,0,0,1,5,15,2,2,0,0,1,7,12.9h3.75a3.13,3.13,0,0,1,.86.12,3,3,0,0,1,.81.38V7.07a.82.82,0,0,0-.84-.84H5a.82.82,0,0,0-.84.84v10A.82.82,0,0,0,5,17.9Zm0,0H5Z"/>
  <path d="M8.92,11.35v-.93H6.56V9.64l2.2-2.49H9.9V9.61h.52v.81H9.9v.93ZM7.68,9.61H8.92V8.22Z"/>
</svg>
