<svg id="Capa_1" data-name="Capa 1" xmlns="http://www.w3.org/2000/svg" width="24" height="24" viewBox="0 0 24 24">
  <path d="M7.68,14.43a.78.78,0,0,0,.58-.24.78.78,0,0,0,.23-.57V11.18a.81.81,0,1,0-1.62,0v2.44a.78.78,0,0,0,.23.57A.78.78,0,0,0,7.68,14.43Zm.81,4.87h3.25V17.67a1.54,1.54,0,0,0-.48-1.14,1.56,1.56,0,0,0-1.15-.48,1.64,1.64,0,0,0-1.62,1.62Zm4.06-4.87a.82.82,0,0,0,.81-.81V11.18a.78.78,0,0,0-.24-.58.78.78,0,0,0-.57-.23.8.8,0,0,0-.58.23.78.78,0,0,0-.23.58v2.44a.74.74,0,0,0,.23.57A.77.77,0,0,0,12.55,14.43Zm-2.44,8.11A7.83,7.83,0,0,1,7,21.9a8,8,0,0,1-4.31-4.31,8.15,8.15,0,0,1,0-6.33A8.14,8.14,0,0,1,4.37,8.69,8.26,8.26,0,0,1,7,7a8.15,8.15,0,0,1,6.33,0,8.21,8.21,0,0,1,4.31,4.31,8.15,8.15,0,0,1,0,6.33,8.26,8.26,0,0,1-1.74,2.58,8.14,8.14,0,0,1-2.57,1.73A7.84,7.84,0,0,1,10.11,22.54Z"/>
  <path d="M18.05,8.25V3.93l-1.11.46V3.3l1.56-.65h.78v5.6Z"/>
</svg>
