<svg id="Capa_1" data-name="Capa 1" xmlns="http://www.w3.org/2000/svg" width="24" height="24" viewBox="0 0 24 24">
  <path d="M15,16h4V12H17.5v2.5H15ZM5,10H6.5V7.5H9V6H5ZM8,21V19H4a1.93,1.93,0,0,1-1.41-.59A1.93,1.93,0,0,1,2,17V5a1.93,1.93,0,0,1,.59-1.41A1.93,1.93,0,0,1,4,3H20a1.93,1.93,0,0,1,1.41.59A1.93,1.93,0,0,1,22,5V17a2,2,0,0,1-2,2H16v2ZM4,17H20V5H4Zm0,0v0Z"/>
  <g>
    <path d="M9.23,13.56a2.1,2.1,0,0,1-.86-.16A1.27,1.27,0,0,1,7.8,13a1.05,1.05,0,0,1-.21-.65.87.87,0,0,1,.1-.42A1,1,0,0,1,8,11.56a1.25,1.25,0,0,1,.41-.22A1.09,1.09,0,0,1,7.9,11a.82.82,0,0,1-.19-.53,1.1,1.1,0,0,1,.2-.63,1.36,1.36,0,0,1,.54-.43,1.78,1.78,0,0,1,.78-.16,1.74,1.74,0,0,1,.77.16,1.39,1.39,0,0,1,.55.43,1.09,1.09,0,0,1,.19.63.87.87,0,0,1-.18.53,1.12,1.12,0,0,1-.49.36,1.29,1.29,0,0,1,.58.37.91.91,0,0,1,.21.6,1,1,0,0,1-.2.65,1.3,1.3,0,0,1-.58.44A2,2,0,0,1,9.23,13.56Zm0-.77a1,1,0,0,0,.36-.07.56.56,0,0,0,.25-.2.47.47,0,0,0,.09-.28A.45.45,0,0,0,9.84,12a.56.56,0,0,0-.25-.2,1,1,0,0,0-.36-.06,1.06,1.06,0,0,0-.37.06.69.69,0,0,0-.25.2.51.51,0,0,0-.08.28.54.54,0,0,0,.08.28.69.69,0,0,0,.25.2A1.06,1.06,0,0,0,9.23,12.79Zm0-1.76A.64.64,0,0,0,9.54,11a.55.55,0,0,0,.22-.18.5.5,0,0,0,.07-.27.44.44,0,0,0-.07-.26.67.67,0,0,0-.22-.19A.78.78,0,0,0,9.23,10a.83.83,0,0,0-.32.06.55.55,0,0,0-.21.19.45.45,0,0,0-.08.26.5.5,0,0,0,.08.27.46.46,0,0,0,.21.18A.68.68,0,0,0,9.23,11Z"/>
    <path d="M13.66,13.5v-.93H11.3v-.79L13.5,9.3h1.13v2.46h.52v.81h-.52v.93Zm-1.24-1.74h1.24v-1.4Z"/>
    <path d="M15.32,10.82,15.77,9h1L16,10.82Z"/>
    <path d="M17,10.82,17.42,9h1l-.71,1.82Z"/>
  </g>
</svg>
