<svg id="Capa_1" data-name="Capa 1" xmlns="http://www.w3.org/2000/svg" width="24" height="24" viewBox="0 0 24 24">
  <path d="M18.1,1.51H5.9A1.89,1.89,0,0,0,4,3.4V20.6A1.89,1.89,0,0,0,5.9,22.49H18.1A1.89,1.89,0,0,0,20,20.6V3.4A1.89,1.89,0,0,0,18.1,1.51Zm.26,17a1.89,1.89,0,0,1-1.89,1.89H7.53a1.89,1.89,0,0,1-1.89-1.89V5.54A1.89,1.89,0,0,1,7.53,3.65h8.94a1.89,1.89,0,0,1,1.89,1.89Z"/>
  <path d="M16.52,6.07h-9a.67.67,0,0,0-.67.67V9.58a.67.67,0,0,0,.67.66h9a.67.67,0,0,0,.67-.66V6.74A.67.67,0,0,0,16.52,6.07Zm-4.7,3.3a.66.66,0,0,1-.66.66H7.75a.67.67,0,0,1-.67-.66V7a.67.67,0,0,1,.67-.67h3.41a.66.66,0,0,1,.66.67Z"/>
  <path d="M13.16,15.68a1.55,1.55,0,0,0,1.54,1.55h1.55V14.14H14.7a1.51,1.51,0,0,0-1.09.45A1.5,1.5,0,0,0,13.16,15.68Z"/>
  <path d="M8.52,17.23a.77.77,0,1,0,0,1.54h2.32a.77.77,0,1,0,0-1.54Z"/>
  <path d="M7.75,13.36a.76.76,0,0,0,.22.56.78.78,0,0,0,.55.22h2.32a.78.78,0,0,0,.55-.22.81.81,0,0,0,0-1.11.78.78,0,0,0-.55-.22H8.52a.78.78,0,0,0-.55.22A.75.75,0,0,0,7.75,13.36Z"/>
</svg>
