<svg id="Capa_1" data-name="Capa 1" xmlns="http://www.w3.org/2000/svg" width="24" height="24" viewBox="0 0 24 24">
  <path d="M1,16.61v-2H5v2Zm5.35-5.25L3.52,8.54l1.4-1.43L7.75,10ZM7,19.61v-3H17v3Zm4-11v-5h2v5Zm6.65,2.75L16.25,10l2.83-2.82,1.42,1.4ZM19,16.61v-2h4v2Z"/>
  <g>
    <path d="M10,15.35V12.11l-.83.35v-.82l1.17-.49h.58v4.2Z"/>
    <path d="M13,15.42a2.32,2.32,0,0,1-1.54-.56l.55-.65a2,2,0,0,0,.52.32,1.46,1.46,0,0,0,.52.09.89.89,0,0,0,.38-.07.62.62,0,0,0,.26-.22.54.54,0,0,0,.09-.31.52.52,0,0,0-.22-.44A.86.86,0,0,0,13,13.4a1.26,1.26,0,0,0-.33,0,2.14,2.14,0,0,0-.35.16l-.66-.2.1-2.26h2.74v.79H12.6l0,.91a1.39,1.39,0,0,1,.41-.13l.37,0a1.58,1.58,0,0,1,.74.16,1.09,1.09,0,0,1,.5.45,1.22,1.22,0,0,1,.18.67,1.31,1.31,0,0,1-.22.76,1.37,1.37,0,0,1-.6.51A2.17,2.17,0,0,1,13,15.42Z"/>
  </g>
</svg>
