<svg id="Capa_1" data-name="Capa 1" xmlns="http://www.w3.org/2000/svg" width="24" height="24" viewBox="0 0 24 24">
  <path d="M19.39,10.59a7.77,7.77,0,0,0-1.74-2.54L12,2.5,6.35,8.05a7.77,7.77,0,0,0-1.74,2.54,7.57,7.57,0,0,0-.61,3,7.55,7.55,0,0,0,2.34,5.6A7.78,7.78,0,0,0,12,21.5a7.78,7.78,0,0,0,5.66-2.3A7.55,7.55,0,0,0,20,13.6,7.57,7.57,0,0,0,19.39,10.59Zm-3.55,5.74a.74.74,0,0,1,0,1.06.75.75,0,0,1-1.06,0L12,14.61,9.22,17.39a.75.75,0,0,1-1.06,0,.74.74,0,0,1,0-1.06l2.78-2.78L8.16,10.76a.74.74,0,0,1,0-1.06.75.75,0,0,1,1.06,0L12,12.48,14.78,9.7a.75.75,0,0,1,1.06,0,.74.74,0,0,1,0,1.06l-2.78,2.79Z"/>
</svg>
