<svg id="Capa_1" data-name="Capa 1" xmlns="http://www.w3.org/2000/svg" width="24" height="24" viewBox="0 0 24 24">
  <path d="M3,22a1.93,1.93,0,0,1-1.41-.59A1.93,1.93,0,0,1,1,20V4a1.93,1.93,0,0,1,.59-1.41A1.93,1.93,0,0,1,3,2h8l6,6v4.25H15V9H10V4H3V20H14v2Zm0-2v0Zm1-1a4.93,4.93,0,0,1,.75-2.25,4.8,4.8,0,0,1,1.7-1.62l-1-1.7a3,3,0,0,1,.1-.38A.69.69,0,0,1,5.84,13a.17.17,0,0,1,.16.13l1,1.75a6.8,6.8,0,0,1,1-.32,5.07,5.07,0,0,1,1-.11,4.9,4.9,0,0,1,1,.11,6.12,6.12,0,0,1,1,.32l1-1.75.38-.1a.23.23,0,0,1,.15.17.45.45,0,0,1,0,.23l-.95,1.7a4.8,4.8,0,0,1,1.7,1.62A4.93,4.93,0,0,1,14,19Zm2.75-1.5a.51.51,0,1,0-.35-.15A.49.49,0,0,0,6.75,17.5Zm4.5,0a.51.51,0,1,0-.35-.15A.49.49,0,0,0,11.25,17.5ZM19,22l-4-4,1.4-1.42L18,18.15V14h2v4.15l1.6-1.57L23,18Z"/>
</svg>
