<svg id="Capa_1" data-name="Capa 1" xmlns="http://www.w3.org/2000/svg" width="24" height="24" viewBox="0 0 24 24">
  <path d="M3,20a1.93,1.93,0,0,1-1.41-.59A1.93,1.93,0,0,1,1,18V4a1.93,1.93,0,0,1,.59-1.41A1.93,1.93,0,0,1,3,2H9a1.93,1.93,0,0,1,1.41.59A1.93,1.93,0,0,1,11,4V9H8a3,3,0,0,0-2.13,5.13A2.93,2.93,0,0,0,8,15h3v3a2,2,0,0,1-2,2ZM6,6.5a.72.72,0,1,0-.54-.21A.73.73,0,0,0,6,6.5ZM8,13a1,1,0,1,1,.71-.29A1,1,0,0,1,8,13Zm4,0a1,1,0,1,1,.71-.29A1,1,0,0,1,12,13Zm3,9a2,2,0,0,1-2-2V15h3a3,3,0,0,0,2.13-5.13A2.93,2.93,0,0,0,16,9H13V6a2,2,0,0,1,2-2h6a2,2,0,0,1,2,2V20a2,2,0,0,1-2,2Zm1-9a1,1,0,1,1,.71-.29A1,1,0,0,1,16,13Zm2-4.5a.72.72,0,1,0-.54-.21A.73.73,0,0,0,18,8.5Z"/>
</svg>
