<svg id="Capa_1" data-name="Capa 1" xmlns="http://www.w3.org/2000/svg" width="24" height="24" viewBox="0 0 24 24">
  <path d="M1,16.61v-2H5v2Zm5.35-5.25L3.52,8.54l1.4-1.43L7.75,10ZM7,19.61v-3H17v3Zm4-11v-5h2v5Zm6.65,2.75L16.25,10l2.83-2.82,1.42,1.4ZM19,16.61v-2h4v2Z"/>
  <g>
    <path d="M10.37,15.35v-.93H8v-.78l2.2-2.49h1.14v2.46h.52v.81h-.52v.93ZM9.13,13.61h1.24V12.22Z"/>
    <path d="M14.08,15.41a1.68,1.68,0,0,1-.95-.27,1.78,1.78,0,0,1-.64-.76,2.65,2.65,0,0,1-.23-1.13,2.73,2.73,0,0,1,.23-1.14,1.81,1.81,0,0,1,.64-.75,1.68,1.68,0,0,1,.95-.27,1.71,1.71,0,0,1,1,.27,1.79,1.79,0,0,1,.63.75,2.73,2.73,0,0,1,.23,1.14,2.65,2.65,0,0,1-.23,1.13,1.76,1.76,0,0,1-.63.76A1.71,1.71,0,0,1,14.08,15.41Zm0-.82a.71.71,0,0,0,.48-.16,1.08,1.08,0,0,0,.31-.47,2.38,2.38,0,0,0,0-1.43,1,1,0,0,0-.31-.46.72.72,0,0,0-.48-.17.71.71,0,0,0-.47.17,1.06,1.06,0,0,0-.32.46,2.38,2.38,0,0,0,0,1.43,1.09,1.09,0,0,0,.32.47A.71.71,0,0,0,14.08,14.59Z"/>
  </g>
</svg>
