<svg id="Capa_1" data-name="Capa 1" xmlns="http://www.w3.org/2000/svg" width="24" height="24" viewBox="0 0 24 24">
  <path d="M17.89,21.67l-1.3-3.23a1.86,1.86,0,0,0-.74-.92,2,2,0,0,0-1.11-.33H13.47a.38.38,0,0,1-.38-.38V14.32h1.82a1.5,1.5,0,0,0,1.5-1.5V3.17a1.5,1.5,0,0,0-1.5-1.5H9.27a1.49,1.49,0,0,0-1.49,1.5v9.65a1.49,1.49,0,0,0,1.49,1.5h1.82v2.49a.38.38,0,0,1-.37.38H9.44a2,2,0,0,0-1.12.33,1.9,1.9,0,0,0-.73.92L6.3,21.67a.38.38,0,0,0,.34.52h1.2A.39.39,0,0,0,8.19,22l1-2.53a.36.36,0,0,1,.35-.23h5.09a.38.38,0,0,1,.35.23L16,22a.37.37,0,0,0,.35.24h1.19A.39.39,0,0,0,17.89,21.67Zm-6-10.82a3.27,3.27,0,0,1-1.25-.24,2.44,2.44,0,0,1-.95-.67l.83-.76a1.93,1.93,0,0,0,.6.46,1.85,1.85,0,0,0,.76.13,1.44,1.44,0,0,0,.53-.09.69.69,0,0,0,.35-.24.57.57,0,0,0,.13-.36.52.52,0,0,0-.1-.31.56.56,0,0,0-.25-.2.94.94,0,0,0-.39-.07h-.72v-1h.59a.81.81,0,0,0,.54-.16.58.58,0,0,0,.19-.46.56.56,0,0,0-.12-.36.69.69,0,0,0-.31-.24,1.06,1.06,0,0,0-.45-.09,1.6,1.6,0,0,0-.69.14,2,2,0,0,0-.61.5l-.84-.76a2.75,2.75,0,0,1,1-.72A3,3,0,0,1,12,5.07,2.6,2.6,0,0,1,13,5.28a1.73,1.73,0,0,1,.73.56,1.47,1.47,0,0,1,.26.85,1.19,1.19,0,0,1-.3.8A1.5,1.5,0,0,1,13,8a1.66,1.66,0,0,1,.89.43,1.08,1.08,0,0,1,.32.78,1.39,1.39,0,0,1-.28.86,2,2,0,0,1-.8.59A2.79,2.79,0,0,1,11.92,10.85Z"/>
</svg>
