<svg id="Capa_1" data-name="Capa 1" xmlns="http://www.w3.org/2000/svg" width="24" height="24" viewBox="0 0 24 24">
  <path d="M14.4,21.21a1,1,0,0,1-.68.37,1,1,0,0,1-.74-.24l-3.83-3.2a6,6,0,0,1-2.07-5.63l-1.4-1.17a1,1,0,0,1-.34-.66A1.05,1.05,0,0,1,5.55,10H4.33v2a2,2,0,0,1-.59,1.42A1.92,1.92,0,0,1,2.33,14V4a1.93,1.93,0,0,1,1.41.59A1.93,1.93,0,0,1,4.33,6V8H7.2L8.75,6.09a1,1,0,0,1,.69-.36,1,1,0,0,1,.74.23l1.37,1.15a5.88,5.88,0,0,1,3.1-.3,6,6,0,0,1,2.83,1.33l3.82,3.2a1,1,0,0,1,.37.69.92.92,0,0,1-.24.71Z"/>
</svg>
