<svg id="Capa_1" data-name="Capa 1" xmlns="http://www.w3.org/2000/svg" width="24" height="24" viewBox="0 0 24 24">
  <path d="M9.39,8.5h6v-2a2.86,2.86,0,0,0-.88-2.12,3,3,0,0,0-4.25,0A2.89,2.89,0,0,0,9.39,6.5Zm10,14a2.46,2.46,0,0,1-2.5-2.5,2.42,2.42,0,0,1,.17-.91,2.87,2.87,0,0,1,.48-.76l1.85-2.08,1.85,2.08a2.61,2.61,0,0,1,.47.76,2.24,2.24,0,0,1,.18.91,2.48,2.48,0,0,1-2.5,2.5Zm-7-5A2,2,0,1,0,11,14.09a2,2,0,0,0,0,2.82A1.93,1.93,0,0,0,12.39,17.5Zm-6,5A1.93,1.93,0,0,1,5,21.91a1.89,1.89,0,0,1-.59-1.41v-10A1.89,1.89,0,0,1,5,9.09,1.93,1.93,0,0,1,6.39,8.5h1v-2A4.86,4.86,0,0,1,8.85,3,4.84,4.84,0,0,1,12.39,1.5,4.86,4.86,0,0,1,15.93,3,4.86,4.86,0,0,1,17.39,6.5v2h1a2,2,0,0,1,2,2v4.1c-.19,0-.36-.06-.53-.07a4.28,4.28,0,0,0-.52,0A4.74,4.74,0,0,0,15.84,16a4.79,4.79,0,0,0-1.45,3.53,5.1,5.1,0,0,0,.25,1.6,4.28,4.28,0,0,0,.77,1.42Z"/>
</svg>
