<svg id="Capa_1" data-name="Capa 1" xmlns="http://www.w3.org/2000/svg" width="24" height="24" viewBox="0 0 24 24">
  <path d="M5.33,20.21a2.49,2.49,0,0,1-2.5-2.5v-10a2.49,2.49,0,0,1,2.5-2.5H12a2.45,2.45,0,0,1,1.77.73,2.41,2.41,0,0,1,.73,1.77V13h.83a1.64,1.64,0,0,1,1.18.49A1.6,1.6,0,0,1,17,14.63V17.3a.39.39,0,0,0,.13.29.41.41,0,0,0,.58,0,.42.42,0,0,0,.12-.29V11.88a1.58,1.58,0,0,1-1.17-.49,1.6,1.6,0,0,1-.49-1.18V7.71H17V6.05h1.25V7.71h.83V6.05h1.25V7.71h.84v2.5a1.64,1.64,0,0,1-.49,1.18,1.6,1.6,0,0,1-1.18.49v5.33a2,2,0,0,1-.6,1.48,2,2,0,0,1-1.48.61,2,2,0,0,1-1.48-.61,2,2,0,0,1-.61-1.48V14.55H14.5v2.33a3.35,3.35,0,0,1-3.33,3.33Zm0-1.66h5.84a1.62,1.62,0,0,0,1.17-.49,1.67,1.67,0,0,0,0-2.36,1.62,1.62,0,0,0-1.17-.49H7.42a.41.41,0,0,0-.3.13.41.41,0,0,0,0,.58.45.45,0,0,0,.3.13h3.75a.81.81,0,0,1,.59.24.85.85,0,0,1,0,1.18.81.81,0,0,1-.59.24H7.42a2.08,2.08,0,1,1,0-4.16h3.75a3.13,3.13,0,0,1,.86.12,2.67,2.67,0,0,1,.8.38V7.71a.81.81,0,0,0-.24-.59A.79.79,0,0,0,12,6.88H5.33a.82.82,0,0,0-.83.83v10a.82.82,0,0,0,.83.84Zm0,0h0Z"/>
  <path d="M8.08,12V8.76l-.82.34V8.29L8.43,7.8H9V12Z"/>
</svg>
